<?xml version="1.0" encoding="utf-8"?>
<!-- Generator: Adobe Illustrator 27.9.0, SVG Export Plug-In . SVG Version: 6.00 Build 0)  -->
<svg version="1.1" id="Layer_1" xmlns="http://www.w3.org/2000/svg" xmlns:xlink="http://www.w3.org/1999/xlink" x="0px" y="0px"
	 viewBox="0 0 1000 300" style="enable-background:new 0 0 1000 300;" xml:space="preserve">
<style type="text/css">
	.polar {
    fill: #2B2E33;
  }

  @media (prefers-color-scheme: dark) {
    .polar {
      fill: #FFFFFF;
    }
  }
</style>
<path fill="#FFFFFF" d="M395.8,130.2c1,71.6-24.4,95.9-59.6,108.7c0,0-59.3-17.4-59.3-87.1V129"/>
<path class="polar" d="M336.2,239.5l-0.2-0.1c-0.1,0-15.1-4.5-29.9-17.5c-8.7-7.6-15.6-16.7-20.5-26.9c-6.2-12.7-9.3-27.3-9.3-43.3
	V129h1.2v22.8c0,15.8,3.1,30.2,9.2,42.7c4.9,10,11.7,18.9,20.2,26.5c13.7,12.1,27.5,16.7,29.3,17.3c20-7.3,33.6-17.5,42.9-32
	c11.3-17.7,16.6-42.6,16.1-76.1l1.2,0c0.5,33.7-4.9,58.8-16.3,76.7c-9.5,14.8-23.3,25.1-43.7,32.5L336.2,239.5L336.2,239.5z"/>
<path fill="#BC1F34" d="M395.8,130.2V64.4c0-4.5-118.9-4.5-118.9,0V129L395.8,130.2"/>
<path class="polar" d="M396.4,130.8l-120.1-1.2V64.4c0-0.8,0.9-1.5,5.6-2.1c3.1-0.4,7.7-0.8,13.5-1c10.8-0.5,25.3-0.8,40.9-0.8
	c15.6,0,30.1,0.3,40.9,0.8c5.8,0.3,10.4,0.7,13.5,1c4.7,0.6,5.6,1.2,5.6,2.1L396.4,130.8L396.4,130.8z M277.5,128.4l117.7,1.2v-65
	c-1.8-1.4-22.8-2.9-58.8-2.9s-57.1,1.5-58.9,2.9V128.4z"/>
<path fill="#BC1F34" d="M360.3,195.4c-0.1-0.9,0.1-1.9-0.1-2.8c-0.6-2.2-1.6-4.4-2.6-6.4c-0.7-1.4-1.3-2.9-1-4.5c0.2-1.3-0.4-2.2-1.3-3
	c-0.5-0.5-0.9-0.5-1.3,0.2c-0.4,0.6-0.8,1.2-0.7,2.1c0.2,1.8,0.4,3.5,1.3,5.1c0.4,0.8,1.1,1.6,1.1,2.6c0,0.9,1.3,1.4,0.5,2.5
	c-0.1,0.2,0.4,1,0.8,1.5c0.5,0.5-0.9,1,0,1.5c0.9,2.1,0.5,4.1,0,6.2c-0.1,0.2-0.2,0.2-0.3,0.1c-0.4-0.5-0.8,0-0.5,0.2
	c0.7,0.6-0.1,1,0,1.5c0.2,0.8-0.1,1.3-0.9,1.5c-0.4,0.1-1.8,0.4-1.9,0.4c-1.7-0.2-2.4-1.3-2.8-2.8c-0.5-2.1-1.4-4-2.3-5.9
	c-0.6-1.3-1.6-2.5-2.1-3.8c-1.2-3-2.3-6.1-2.2-9.5c0.1-2.2,0.8-4.1,2-5.8c0.4-0.6,0.7-1.2,1-2c0.8-2.5,1.7-5,1.4-7.7
	c-0.1-0.8,0.9-1.3,0.5-1.9c-0.7-1.1-0.2-2.2-0.5-3.3c-0.7,0-1.4-0.2-2,0.4c-0.3,0.3-0.8,0.1-0.7-0.5c0.1-0.8-0.3-1-0.9-0.9
	c-0.3,0.1-0.6-0.1-0.9,0.1c-0.4,0.4-1.2,0.4-1.5,1c-0.3,0.7-1.3-0.2-1.4,0.7c-1.4,0-2.8,0.1-4.2,0.4c-1.2,0.2-1,0.8-0.8,1.5
	c-0.2-0.1-0.3,0-0.2,0.2c0,0,0,0.1,0.1,0.1c-0.7,0.8-0.7,1.1-0.1,1.8c0.2,0.3,0.6,0.5,0.8,0.8c0.2,0.2,0.7,0.3,0.5,0.8
	c-1,0.2-1.8-0.5-2.7-0.7c-0.2-1.5-0.8,0-0.8,0c-0.4,0.8,0.2,1.8,1.4,2.2c0.4,0.1,0.7,0.1,1,0.4c0.3,0.3,0.9-0.1,1.2,0.3
	c-0.3,0.4-0.7,0.2-1,0.2c-0.6,0.1-0.3,0.6-0.4,0.9c-0.6,0-1.2-0.2-1.7,0.5c-0.2,0.3,0.7,1.2-0.5,0.9c-0.6-0.1-0.9,0.6-1.7,0.5
	c-0.5-0.1-1.2-0.2-1.8,0.2c0.5,0.3,1.3,0.3,1,1.2c-0.6-0.1-1.2,0.2-1.8-0.1c-0.1-0.1-0.2-0.5-0.5-0.1c-0.1,0.1-0.1,0.5,0.1,0.6
	c0.2,0.2,0.4,0.3,0.1,0.7c-0.3,0.3-0.5,0.2-0.9,0c-1.5-0.8-2.7-1.9-3.6-3.4c-0.7-1.1-1.3-2.2-2.8-2.4c0.1-0.8-0.2-1.1-0.9-0.9
	c-0.2-0.7,0.4-1.2,0.7-1.8c0.1-0.3,0.4-0.6,0.2-0.8c-0.5-0.5-0.4-1.5-1.4-1.4v0c0-0.1,0.1-0.2-0.1-0.2c-0.8-1.1-1-1.1-1.8-0.6
	c-0.2,0.1-0.7,0.5-0.2,0.6c1.3,0.2,0.6,0.9,0.6,1.5c-0.7-0.5-1.1-1.2-1.7-1.5c-1.1-0.6-1.9-0.4-2.5,0.8c-0.1,0.2-0.4,0.3-0.1,0.7
	c0.4,0.4,0.5,0.2,0.9,0c0.4-0.3,0.6-0.1,0.3,0.5c-0.4,1,0.4,1.4,1,2.2c-0.7,0-1,0-1.4,0c-0.5,0-1.3,1.3-1.1,1.6
	c0.3,0.4,0.6,0.3,0.9,0c0.4-0.4,0.5,0.2,0.6,0.3c0.5,0.3,0.7,1.1,1.5,0.9c0.2,0,0.5,0,0.6,0.2c0,0-0.1,0.1-0.1,0.2
	c-0.1,0.6-0.7,1.2-1.1,0.9c-0.5-0.3-0.6-0.4-0.6,0.2c0,0.9,0.8,1.7,1.7,1.8c0.6,0,1.2,0,1.9,0c0.6,0,1.9,1.7,1.8,2.3
	c0,0.3,0.3,2.2,0.5,2.4c0.1,0.2,0.3,0.6,0.6,0.2c0.1-0.2,0-0.5-0.1-0.7c-0.2-0.1-0.3-0.2-0.3-0.3c0.1-0.2,0.2-0.2,0.3-0.1
	c0.1,0.1,0.1,0.2,0.1,0.4c0.3,0,0.5,0.2,0.5,0.4c0,0.8,0.5,0.5,1,0.6c0.6,0.8,0.9,1.8,0.9,2.8c-0.9,0-1.8,0-2.4,0.9
	c-0.4,0.1-0.9,0-1.3,0.1c-1.7,0.5-3.1,1.7-4.8,2.5c0-0.1,0-0.2,0-0.2c-0.1-0.5-0.4-0.7-0.7-0.9c-0.5-0.3-3.2,0.5-3.5,1.1
	c-0.2,0.5-0.2,1,0.3,1.4c0.7,0.5,0.4-0.2,0.5-0.4c0.1-0.2,0.5-0.4,0.6-0.2c0.4,0.7,1.3,0.2,1.8,0.7c-0.2,0.3-0.4,0.2-0.7,0.3
	c-1.3,0.1-1.4,0.1-1.7,1.3c-0.1,0.4-0.5,0.6-0.5,1c0,0.5,0,0.9,0.4,1.2c0.2,0.1,0.4,0.3,0.6,0.2c0.4,0,0.4-0.4,0.4-0.7
	c0-0.7,0.1-0.8,0.7-0.3c0.3,0.2,0.9,0.3,1.2-0.2c0.1-0.2,0-0.6,0.2-0.6c0.2,0,0.2,0.4,0.3,0.5c0.5,0.5,1.2,0.8,0.9,1.7
	c-0.1,0.2,0,0.5,0.3,0.5c0.2,0.1,0.5,0.1,0.6-0.2c0.6-1,1.5-1.8,1.6-2.9c1.5,0.3,1.2,1.6,1.5,2.8c0.4-0.7,1.6-0.5,1.1-1.6
	c-0.2-0.1-0.3-0.2-0.3-0.3c0.1-0.2,0.2-0.2,0.3-0.1c0.1,0.1,0.1,0.2,0.1,0.3c0.7-0.3,0.7-1,0.9-1.5c0.1-0.2,0.3-0.4,0.5-0.3
	c0.5,0.3,1,0.5,1.7,0.5c1.1,0.1-0.2-1,0.5-1c0.6,0,1.2,0,1.9,0c0.6,0,0.9-0.4,1.1-0.9c0.9,0.6,1.8,1.2,2.9,1.6c0,0,0,0,0,0
	c-0.1,0.1,0,0.2,0.1,0.2c0,0.4,0.7,0.7,0,1c-0.1,0.1-0.1,0.3,0.1,0.3c0.8-0.1,1.3,0.2,1.5,1c1.7,0.4,2.6,2,4.1,2.6
	c1.3,0.6,2.1,1.6,2.8,3.2c-0.6-0.4-1.1,0.1-1.4-0.4c-0.6-0.9-1.7-1.1-2.3-1.8c-0.5-0.7-0.7,0.3-1.1,0.1c-0.5-0.9-1.4-1-2.3-0.9
	c-1,0-2,0.2-2.6,1c-0.6,0.6-1.4,0.9-2,1.4c-1.3,1-3,1.7-3,3.7c0,0.6-0.4,0.9-1,1c-1.3,0.2-1.5-0.1-2.3-1.2c-0.3-0.4,0-1.5-1.1-1.2
	c-0.6,0.1-1-0.6-1.7-0.5c-0.7,0.1-1.1,0.2-1.2,0.9c0.4,0.2,1-0.2,1.3,0.3c-0.2,0.3-0.6,0.1-0.8,0.3c-0.8,0.5-1.9,0.3-2.6,1.2
	c-0.2,0.3-0.6,0.6-0.3,1c0.3,0.3,0.6,0.9,1.1,0.5c0.4-0.3,0.7-0.4,0.8,0c0.3,0.9,1.3,0.2,1.8,0.8c-0.9,0.4-1,1.4-1.6,2
	c-0.6,0.6-0.5,1.2,0.1,1.7c0.7,0.6,0.8,0.1,1-0.5c0.1-0.4,0.6-0.2,0.8-0.2c0.6,0.1,0.9-0.3,1.4-0.6c0,0.1,0,0.2,0.1,0.2
	c-0.1,0.7,0.1,0.9,0.8,0.6c0,0.1,0.1,0.2,0.1,0.3c-0.4,0.6-0.6,0.8-1,0.9c-0.2,0.1-0.5,0.1-0.4,0.3c0,0.2,0.3,0.4,0.5,0.5
	c0.6,0.2,1.3,0.4,1.9-0.2c0.5-0.4,0.8-0.9,1-1.7c0.8,1.1,1.3,2.3,2.4,2.9c0.2-0.2,0.4-0.4,0.7-0.7c-0.3-0.1-0.8-0.1-0.8-0.3
	c-0.1-0.4,0.4-0.8,0.6-0.8c0.6-0.1,1.4-0.3,1.9,0.5c0.5,0.7,1.2,0.4,1.9,0.4c0.1,0,0.1-0.2,0.2-0.4c0-0.2-0.1-0.6-0.3-0.4
	c-0.7,0.8-1.2,0.2-1.5-0.3c-0.3-0.4-0.2-1,0.3-1.4c0.4-0.3,0.9-0.6,1-1.2c0.6,0,1.4-0.3,1.5,0.8c0,0.2,0.4,0.2,0.6,0.1
	c0.2-0.1,0.2-0.4,0.2-0.6c0-0.1-0.2-0.2-0.3-0.4c-0.6-0.7,0.1-1,0.5-1.3c0.6-0.4,0.7,0.1,0.8,0.6c0,0.2,0.4,0.5,0.6,0.7
	c0.1,0.1,0.3,0.1,0.4,0c0.2-0.1,0.4-0.4,0.2-0.6c-0.8-1-0.1-1,0.5-0.8c0.5,0.2,1.1,0.3,1.6,0.6c0.5,0.2,0.2,1,0.2,1.5
	c0,0.3,0.2,0.6,0.3,0.8c0.2,1.1,0.9,2.1,0.6,3.3c-0.2,0.7,0.1,1.4,0.5,1.9c0.9,1.3,1.6,2.9,3.7,2.8c0.5,0,0.9,1.4,0.6,2
	c-0.4,1-0.4,1-1.1,0.4c-0.3-0.2-0.4-0.6-0.9-0.6c-0.9,0-2.9,0.9-3.2,1.8c-0.1,0.3-0.3,0.9,0.4,0.7v0.3c-0.6,1.1-0.5,1.9-0.4,2.7
	c0,0.4,0.7,0.6,1,0.5c0.4-0.3,0.3-0.8,0.6-1.1c0.3,0.4,0.7,0.6,1.2,0.4c0.3-0.1,0.6-0.3,1-0.5c0,0.4-0.2,0.9,0.6,1
	c0.6,0,0.3,0.6,0.4,0.9h0.9c0.9-0.7,1.4-1.7,1.4-2.8c0.3,0.2,0.6,0.4,1,0.5c0.9,0.3-0.1,0.6,0,0.7c0.5,0.3,1,0.6,1.3-0.2
	c0,0,0.1,0,0.1,0c0.4,0,0.5-0.3,0.5-0.6v-1.8c0.3,0,0.5-0.1,0.5-0.5c0.3-0.1,0.8,0.2,0.8-0.2c0.2-0.6,0.9-1.1,0.6-1.9
	c0.7-0.3,1.3-0.8,1.7-1.4c0.1-0.1,0.1-0.4,0.1-0.6c-0.1-0.3-0.5-0.3-0.6-0.2c-0.8,0.7-1.3,0.1-1.7-0.4c-0.6-0.7-0.8-1.8-1.4-2.5
	c-0.5-0.6-0.5-1.2-0.5-1.9c0-0.8,0.7-1.5,0.5-2.4c0-0.3,0.6-0.8,1-1.2c0.5-0.4,0.8,0.3,1.2,0.4c0.2,0.1,0.4,0.2,0.6,0.3
	c2.7,1.2,4.7,0.8,6.6-1.2c0.3,0,0.5-0.1,0.5-0.5c0.7-0.2,1-0.7,0.9-1.4c1-0.3,1-1.1,0.9-1.9c0.4,0,0.4-0.3,0.5-0.6
	c0-0.3-0.2-0.8,0.5-0.8v-4.2C360.1,196.3,360.3,195.8,360.3,195.4L360.3,195.4z"/>
<path fill="#FFFFFF" d="M322.2,179.3L322.2,179.3L322.2,179.3z M322.2,191.1C322.2,191.1,322.2,191.1,322.2,191.1
	C322.2,191.1,322.1,191.1,322.2,191.1L322.2,191.1z"/>
<g>
	<path fill="#2B2E33" d="M357.5,205.7c-1.9,2-3.8,2.4-6.6,1.2c-0.2-0.1-0.4-0.2-0.6-0.3c-0.4-0.1-0.6-0.8-1.2-0.4
		c-0.4,0.3-1.1,0.8-1,1.2c0.1,0.9-0.5,1.6-0.5,2.4c0,0.7,0,1.3,0.5,1.9c0.6,0.7,0.8,1.7,1.4,2.5c0.4,0.5,0.9,1.1,1.7,0.4
		c0.1-0.1,0.5-0.1,0.6,0.2c0.1,0.2,0,0.5-0.1,0.6c-0.5,0.6-1,1.1-1.7,1.4c0.3,0.8-0.4,1.2-0.6,1.9c-0.1,0.4-0.5,0.1-0.8,0.2
		c-0.1-0.5-0.6-0.8-0.5-1.4c0.1-0.4,0.2-0.5,0.5-0.2c0.2,0.3,0.6,0.3,0.8,0.1c0.3-0.3-0.3-0.4-0.3-0.7c0-0.6-0.4-0.9-0.9-1.1
		c-0.2-0.7-0.7-1-1.4-0.9c-0.2-0.3-0.3-0.6-0.5-0.9c0.5-0.1,0.8-0.7,1.4-0.5c0.2,0.3-1.1,1,0.3,1c0.2,0,0.3,0.5,0.7,0.4
		c0,0.3,0.1,0.5,0.5,0.5c0.1,0.5,0.5,0.8,0.9,0.9c0.1,0,0.3,0,0.4-0.1c0.1-0.1,0.1-0.2-0.1-0.3c-0.3-0.4-0.7-0.6-1.2-0.5
		c0-0.3-0.1-0.5-0.5-0.5c0.1-0.7-0.2-1.2-0.9-1.4l-0.9-3.3c0.1-0.3-0.1-0.6,0.2-0.9c0.8-0.7,0.1-1.3-0.2-2c0.3-0.1,0.8,0.2,0.9-0.3
		c0.1-0.5-0.3-0.8-0.7-1c-0.3-0.2-0.7-0.2-0.7,0.4c-0.4-0.1-0.7-0.4-0.9-0.8c0.9-0.2,1.3-0.7,1.3-1.6h0.5c0.2,0.3,0.4,0.6,0.5,1
		c0.1,0.2,0,0.4,0.3,0.4c0.1,0,0.1-0.2,0.1-0.4c0-0.3,0-0.6,0-0.9c0.8-0.5,0.6-1.3,0.2-1.8c-0.4-0.5-0.2-1-0.2-1.5
		c0.3-0.2,0.6-0.3,0.9,0.3c0.6,0.3,0.4-0.1,0.5-0.5c0-0.1-0.1-0.3-0.2-0.3c-0.4-0.1-0.2,0.3-0.2,0.4c-0.1,0.3,0,0.6,0,0.4
		c-0.1-1.2,0.1-1.7-0.1-2.1c-0.8-1.5-1.5-3.1-2.3-4.6c-0.1-0.3-0.4-0.7-0.9-0.7c0-0.3,0-0.6,0-0.9c0-0.1-0.1-0.4-0.1-0.4
		c-0.3-0.1-0.3,0.1-0.3,0.4c-0.1,0.3-0.3,0.6-0.5,1c-0.8-0.5-0.9-1.1-0.1-2.1c0-0.3-0.2-0.2-0.3,0c-0.1,0.2,0,0.3,0.2,0.2
		c0.2,0,0.6,0.1,0.7-0.3c0,0-0.2-0.1-0.6,0.1c-1,0-0.9-0.4-0.5-0.7c0.1-0.1,0.5,0,0.6-0.2c-0.7-0.4-0.2-1.1-0.6-1.6
		c-0.2-0.3-0.5-0.6-0.9-0.6c-0.7,0.1-1.2-0.3-1.3-1c-0.1-0.8-0.1-1.6,0.9-1.8c0.6-0.1,0.6-0.6,0.3-0.8c-1.2-0.8-0.8-1.8-0.1-2.4
		c0.8-0.7-0.8-1.4,0.2-1.9c0.1-0.1,0.1-0.5,0-0.7c-0.2-0.3-0.5-0.6-0.7-0.9c-0.4-0.5-0.3-0.8,0.4-0.9c0.2,0,0.4-0.2,0.4-0.5
		c0.3,0,0.5-0.1,0.5-0.5c0.3,0,0.5-0.1,0.5-0.5c0.7,0,0.4-0.6,0.5-0.9c0.3,0,0.5-0.1,0.5-0.5c0.1-0.1,0.4-0.1,0.4-0.2
		c0.1-0.3-0.1-0.3-0.4-0.3c0-0.2,0-0.3,0.2-0.9c-0.3-0.5-0.2-0.1-0.3,0.2c0,0.2,0,0.4,0.2,0.2c0.3-0.2,0.4-0.5,0.7-0.8
		c-0.1-0.1-0.2-0.1-0.6,0.3c-0.4,0.5-0.6,0.5-0.7,0.5c0-0.3-0.1-0.5-0.5-0.5c-0.1-0.4,0.5-0.5,0.4-0.7c-0.1-0.3-0.5-0.3-0.8-0.1
		l-1.5,0.1c-0.2-0.2-0.4-0.3-0.5,0c-0.1,0.2,0,0.5,0,0.7h-0.5c-0.1-0.3,0.1-1.1-0.3-0.8c-0.7,0.5-1.4,0.1-1.9,0.4
		c-0.7,0.4-1.3-0.1-1.9,0c-0.3,0-0.6,0-0.6,0.5c-0.2,0-0.3,0-0.5,0c-0.3-0.1-0.6,0.1-0.9-0.1c-0.6-0.5-1,0.2-1.5,0.3
		c0.3,1.3-1.5,1.4-1.4,2.6c-0.6-0.1-0.8-0.2-0.7-0.5c0.3-0.5,0.4-1.3,1-1.4c1.5-0.2-0.3-0.7,0.3-1.2c0-0.1-0.1-0.1-0.1,0
		c-0.1,0.2,0,0.3,0.2,0.2c0.1-0.1,0.2-0.2,0.2-0.3c0,0-0.1-0.1-0.3,0.1c-0.4,0.3-0.9,0.1-1,0.4c-0.1,1.1-0.9,0.7-1.5,0.8
		c0.3-0.9-0.5-0.9-1-1.2c0.6-0.4,1.2-0.3,1.8-0.2c0.7,0.1,1.1-0.6,1.7-0.5c1.2,0.2,0.3-0.6,0.5-0.9c0.4-0.7,1.1-0.4,1.7-0.5
		c0,0.4,0.2,0.5,0.6,0.5h1.3c0.2,0.7,0.5,1.1,1.3,0.5c0.2-0.2,0.7,0,1.5,0.1c0.4-0.1,0.2-0.2,0-0.2c-0.1,0-0.4,0-0.4,0
		c-0.1,0.2,0.1,0.4,0.3,0.4c0.2,0,0.4-0.1,0.1-0.3c-0.4-0.3-0.4-0.5-0.4-0.6c0.7,0.1,1.3-0.2,1.4-0.8c0.1-0.5,0.6-0.7,0.5-1.1
		c0.6-0.1,1,0,1,0.8c0,0.4-0.3,1,0.4,1.1c0,0.3,0.1,0.4,0.4,0.5c0.3,0,0.6,0,0.6-0.5c0.3-0.5,0.8,1.4,0.9-0.1c0-0.4,0.1-0.8-0.1-1.1
		c-0.3-0.4-0.8-0.5-0.9,0.2h-0.5c0-0.3-0.2-0.7,0.1-0.8c0.5-0.1,1-0.2,1.5-0.1c0.4,0.1,0,0.7,0.6,0.9c-0.1-0.7,0.4-1.4-0.4-1.9
		c-0.3-0.5-0.6-1,0.2-1.4c0.2-0.1,0.4-0.2,0.3-0.5c1,0.3,1,1.1,0.8,2.6c0,0.5,0.1,0.5,0.1,0.4c0-0.4,0-0.8,0-1.1c0,0-0.2,0-0.2,0
		c-0.4,0.3-0.2,0.8-0.2,1.2c0,0.1,0.1,0.1,0.3-0.5c0.3-0.7,0.4-0.7,0.8-0.6c0.1,0,0.1-0.1,0-0.1c-0.2-0.1-0.3,0-0.2,0.2
		c0,0.1,0.2,0.2,0.3,0.2c0,0,0.1-0.1-0.1-0.3c-0.2-0.7-0.1-1.2-0.3-1.7c-0.1-0.4-0.5-0.8-1-0.8c-0.2,0-0.4,0.2-0.4,0.5
		c-0.4,0-0.9,0.2-1-0.6c0-0.6,0.7-1,0.1-1.8c-0.5-0.5,0.6-1.1,0.6-2.1c0-0.1-0.1-0.1-0.1,0c-0.1,0.2,0,0.3,0.2,0.2
		c0.1-0.1,0.2-0.2,0.2-0.3c0,0-0.1-0.1-0.3,0.1c-0.6,0.3-1.6,0.1-2.1-0.1c-0.3-0.1-0.6-0.1-0.9-0.1c-0.6,0-1.2,0-1.8,0
		c0.1-1,1.2-0.1,1.4-0.7c0.3-0.6,1-0.6,1.5-1c0.3-0.3,0.6-0.1,0.9-0.2c0.7-0.1,1,0.1,0.9,0.9c-0.1,0.6,0.4,0.8,0.7,0.5
		c0.6-0.6,1.3-0.4,2-0.4c0.3,1.1-0.1,2.3,0.6,3.3c0.4,0.6-0.6,1.1-0.5,1.9c0.3,2.7-0.5,5.2-1.4,7.7c-0.2,0.7-0.5,1.3-1,2
		c-1.2,1.7-1.9,3.6-2,5.8c-0.1,3.4,1,6.4,2.2,9.5c0.6,1.4,1.5,2.5,2.1,3.8c0.9,1.9,1.8,3.8,2.3,5.9c0.4,1.5,1.1,2.6,2.8,2.8
		c0.2,0,1.6-0.3,1.9-0.4c0.9-0.2,1.1-0.7,0.9-1.5c-0.1-0.5,0.8-0.9,0.1-1.5c-0.2-0.2,0.1-0.7,0.5-0.2c0.1,0.1,0.3,0.1,0.3-0.1
		c0.5-2.1,1-4.1,0-6.2c-1-0.5,0.4-1,0-1.5c-0.4-0.4-1-1.3-0.8-1.5c0.8-1.1-0.5-1.7-0.5-2.5c0-1.1-0.7-1.8-1.1-2.6
		c-0.8-1.6-1-3.4-1.3-5.1c-0.1-0.8,0.3-1.4,0.7-2.1c0.3-0.6,0.8-0.6,1.3-0.2c0.9,0.8,1.5,1.7,1.3,3c-0.3,1.6,0.3,3.1,1,4.5
		c1.1,2.1,2,4.2,2.6,6.4c0.2,0.9,0.1,1.9,0.1,2.8c0,0.3-0.2,0.8,0.5,0.8v4.2c-0.6,0-0.4,0.5-0.5,0.8c0,0.3,0,0.6-0.5,0.6
		c0-0.9,0-0.9-0.8-1.5c-0.3-0.3-0.3-0.7,0.2-0.8c0.9-0.2,1.1-0.7,1-1.5c0-0.2-0.1-0.6-0.4-0.2c-0.6,0.6-0.5,0.1-0.6-0.3
		c0-0.3,0.7-0.4,0.2-0.9c-0.3-0.4-0.6-0.9-0.7-1.3c-0.1-0.5,0.7-0.8,0.4-1.4c0.1,0,0.4-0.1,0.4-0.2c0.1-0.3-0.1-0.3-0.4-0.3
		c0-0.9,0-1.8-0.5-2.6c-0.9-1.8-1.7-3.6-2.5-5.4c-0.3,0.1-0.3,0.4-0.3,0.6c0,0.2-0.2,0.4-0.5,0.4c-0.1-1.2-0.8-3.2-1.4-4.2
		c0-0.5,0-0.9,0.1-2.1c0-0.5-0.1-0.5-0.1-0.4c0,0.4,0,0.8,0,1.1c0,0,0.2,0,0.2,0c0.4-0.3,0.2-0.8,0.2-1.2c0-0.1-0.1-0.1-0.3,0.5
		c-0.8,1.2-0.8,1.7-0.1,2.1c0,1.6,0.3,3.1,1.4,4.2c-0.2,0.7,0.3,1.4,0.6,1.7c0.6,0.5-0.2,1.5,0.8,1.6c0.2,0.8,1.1,1,1.4,1.7
		c-0.6,0.3-0.8,0.7-0.4,1.1c0.2,0.8,0,1.6,0.2,2.5c0.5,1.8,0.4,3.6,0.1,5.4c-0.1,0.7-0.1,1.7-1.1,2.1c-0.3,0.1-0.1,0.6-0.2,0.9
		c-0.8,0.3-1.2,1.1-2.2,1.9h1.7v0.5h-2c0.1,0.1,0.2,0,0.1-0.2c0-0.4,0-0.8-0.5-0.7c-0.1,0-0.2,0.1-0.4,0.2c0.2,0.3,0.4,0.5,0.7,0.8
		c0.7,0.6,1.4,0.6,2,0L357.5,205.7L357.5,205.7z M343.8,161.6v-0.2c-0.1,0-0.3,0.1-0.4,0.1c-0.1,0.1-0.1,0.2,0.1,0.3
		c0.1,0,0.2-0.1,0.5-0.8c-0.1,0.1-0.2,0.1-0.3,0.2c-0.1,0.2,0,0.3,0.2,0.2c0.1-0.1,0.2-0.2,0.2-0.3
		C344.3,161.1,344.2,161,343.8,161.6z M353,204.8c-0.1,0.1-0.2,0.1-0.3,0.2c-0.1,0.2,0,0.3,0.2,0.2c0.1,0,0.2-0.2,0.2-0.3
		c0,0-0.1-0.1-0.4,0.5v-0.2c-0.1,0-0.3,0.1-0.4,0.1c-0.1,0.1-0.1,0.2,0.1,0.3C352.6,205.7,352.7,205.5,353,204.8L353,204.8z
		 M345.5,164.7h0.2c0-0.1-0.1-0.3-0.1-0.4c-0.1-0.1-0.2-0.1-0.3,0.1c0,0.1,0.1,0.2,0.4,0.3c-0.4,1.1,0.8,0.9,1.1,1.4
		c0.4-0.3,0.8-0.6,0.8-1.2c-0.1-0.7,0-1.4,0-2.1c0-0.2-0.2-0.4-0.7-0.4h0.2c0-0.1-0.1-0.3-0.1-0.4c-0.1-0.1-0.2-0.1-0.3,0.1
		c0,0.1,0.1,0.2,0.4,0.3C347,163.3,346.8,164.3,345.5,164.7L345.5,164.7z M349.2,202.4c-0.3,0.7-0.3,1.3,0.3,1.7
		c0.1,0.1,0.2,0.1,0.3,0.2c0-0.1,0.2-0.3,0.1-0.4C349.7,203.4,349.5,202.9,349.2,202.4L349.2,202.4z M343.4,186.8
		c-0.1-0.2-0.2-0.4-0.5-0.4c-0.4,0-0.5,0.3-0.5,0.6c0,0.2,0.2,0.4,0.5,0.4C343.3,187.3,343.4,187.1,343.4,186.8z M346.2,172
		c-0.1-0.2,0.2-0.7-0.3-0.6c-0.3,0-0.2,0.4-0.2,0.6c0,0.2-0.2,0.7,0.3,0.6C346.3,172.6,346.1,172.2,346.2,172z M348.8,204.8
		c-0.1,0.1-0.2,0.2-0.2,0.4c0,0.3,0,0.6,0.5,0.6c0.2,0,0.5-0.1,0.4-0.3C349.3,205.2,349,205,348.8,204.8L348.8,204.8z M351.4,205.1
		c0.1,0.2-0.2,0.6,0.3,0.6c0.3,0,0.2-0.4,0.2-0.6c0-0.2,0.2-0.7-0.3-0.6C351.3,204.4,351.4,204.8,351.4,205.1L351.4,205.1z
		 M350.9,204.7c-0.1-0.2,0.2-0.6-0.2-0.8c-0.2-0.1-0.3,0.2-0.3,0.4c0.1,0.3-0.2,0.7,0.2,0.8C350.8,205.2,350.9,205,350.9,204.7
		L350.9,204.7z M355.4,182.6c0.4-0.5,0.4-1,0-1.5C355,181.7,355,182.1,355.4,182.6z M341.8,170.9c-0.1,0.1-0.3,0.1-0.3,0.2
		c0,0.2-0.1,0.5,0.1,0.6c0.1,0,0.3-0.1,0.3-0.2C342,171.3,342,171.1,341.8,170.9z M346.9,170.9c-0.1,0.1-0.3,0.1-0.3,0.2
		c0,0.2-0.1,0.5,0.2,0.6c0.1,0,0.3-0.1,0.3-0.2C347.1,171.3,347.2,171.1,346.9,170.9z M353.5,205.7c-0.1,0-0.2,0.1-0.2,0.1
		c0,0.1,0.1,0.2,0.2,0.3c0-0.1,0.2-0.1,0.1-0.1C353.6,205.9,353.5,205.8,353.5,205.7z M335,172.4c0,0.1,0.1,0.2,0.2,0.3
		c0.1-0.1,0.2-0.1,0.2-0.2c0-0.1-0.1-0.2-0.2-0.3L335,172.4z M352.2,206.4l-0.2-0.2c0,0.1-0.1,0.2-0.1,0.3c0,0,0.1,0.1,0.1,0.1
		C352.1,206.6,352.2,206.5,352.2,206.4z M344.6,162.3l0.2-0.2c-0.1-0.1-0.2-0.1-0.3-0.2c0,0-0.1,0.1-0.1,0.2
		C344.4,162.2,344.5,162.2,344.6,162.3z M355.6,184.3l0.2,0.2c0.1-0.1,0.1-0.2,0.2-0.3c0,0-0.1-0.1-0.2-0.2
		C355.8,184.1,355.7,184.2,355.6,184.3z M345.2,220.8c0,1.2-0.5,2.1-1.4,2.8h-0.9c-0.1-0.3,0.2-0.9-0.4-0.9c-0.8,0-0.5-0.6-0.6-1
		c0.3,0,0.4-0.1,0.5-0.4c0-0.3,0-0.6-0.5-0.6c0.2-0.7,1-0.6,1.5-0.9c0.2-0.1,0.4,0.2,0.5,0.8c0,0.1-0.3,0-0.2-0.3
		c-0.4-0.1-0.5,0.3-0.7,0.5c-0.3,0.2-0.3,0.5-0.1,0.8c0.1,0.1,0.5,0.2,0.6,0.1c0.2-0.2,0.7-0.3,0.4-1c0.2-0.4,0.8-1.2,0.9,0
		C344.9,220.7,345.1,220.7,345.2,220.8L345.2,220.8z M344.2,222.4c-0.1-0.3-0.4-0.2-0.6-0.2c-0.1,0-0.2,0.2-0.2,0.3
		c0.1,0.3,0.4,0.2,0.6,0.1C344.1,222.7,344.2,222.5,344.2,222.4z"/>
	<path fill="#2B2E33" d="M342,221.7c-0.3,0.2-0.6,0.4-1,0.5c-0.5,0.1-0.9-0.1-1.2-0.4c-0.3,0.3-0.2,0.9-0.6,1.1c-0.2,0.1-1-0.1-1-0.5
		c0-0.9-0.2-1.8,0.7-3.1c-0.2-0.5-0.2-0.1-0.2,0.3c0,0.2,0,0.4,0.2,0.2c0.3-0.2,0.5-0.5,0.7-0.8c-0.1-0.1-0.2-0.1-0.6,0.3
		c-1,0.4-0.8-0.3-0.7-0.6c0.3-0.8,2.3-1.8,3.2-1.8c0.5,0,0.6,0.4,0.9,0.6c0.7,0.5,0.7,0.5,1.1-0.4c0.3-0.6-0.2-2.1-0.7-2
		c-2.1,0.2-2.7-1.5-3.6-2.8c-0.4-0.5-0.6-1.2-0.5-1.9c0.3-1.2-0.4-2.2-0.7-3.3c0-0.2-0.3-0.5-0.3-0.8c0-0.5,0.3-1.3-0.2-1.5
		c-0.5-0.2-1.1-0.4-1.6-0.6c-0.6-0.2-1.3-0.1-0.5,0.8c0.1,0.1,0,0.5-0.2,0.6c-0.1,0.1-0.4,0.1-0.5,0c-0.2-0.2-0.6-0.4-0.6-0.7
		c-0.1-0.5-0.2-1-0.8-0.6c-0.4,0.2-1.1,0.6-0.5,1.3c0.1,0.1,0.2,0.2,0.3,0.4c0.1,0.2,0,0.5-0.2,0.6c-0.2,0.1-0.6,0.1-0.6-0.1
		c-0.1-1.1-0.9-0.8-1.5-0.8v-0.5c0.3,0.1,0.4-0.1,0.5-0.4c0-0.3,0-0.6-0.5-0.6c0-0.4-0.1-0.8,0-1.1c0-0.2,0.3-0.3,0.4,0
		c0.1,0.2-0.1,0.6,0.2,0.6c0.5,0.1,0.2-0.4,0.3-0.6c0.2-0.6-0.2-1.1-0.5-1.6c0.3,0,0.6,0,0.9,1c0.8,0.5,0.2-0.2,0.7-0.6
		c0.4-0.3,0-0.5-0.2-0.4c-0.1,0-0.5-0.2-0.5,0.2c0,0.5,0,1,0,0.8V200c0.3,0,0.5-0.1,0.5-0.5h0.5v1v-0.1c-0.1,0-0.3,0.1-0.4,0.1
		c-0.1,0.1-0.1,0.2,0.1,0.3c0.1,0,0.2-0.1,0.3-0.3c0.7-0.1,0.4-0.7,0.5-1c0.3,0,0.4-0.1,0.5-0.4c0-0.3,0-0.6-0.5-0.6v-0.9
		c0.2,0,0.3,0,0.7,0.1c0.1,0,0.1-0.1,0-0.1c-0.2-0.1-0.3,0-0.2,0.2c0,0.1,0.2,0.2,0.3,0.2c0,0,0.1-0.1-0.1-0.3
		c-0.2-0.5-0.2-0.8-0.2-1.1h0.5c0,0.1,0.1,0.4,0.2,0.4c0.3,0.1,0.3-0.1,0.3-0.4c0.7,0,0.4-0.6,0.5-0.9c0.4,0.2,0.5-0.8,1.1-0.1
		c0.6,0.8,1.7,1,2.3,1.8c0.3,0.5,0.8,0,1.4,0.4c-0.8-1.6-1.5-2.6-2.8-3.2c-1.5-0.7-2.4-2.2-4.1-2.6c-0.2-0.8-0.6-1.1-1.5-1
		c-0.2,0-0.2-0.2-0.1-0.3c0.8-0.5-0.3-0.7,0-1.3c0-0.1-0.1-0.1-0.1,0c-0.1,0.2,0,0.3,0.2,0.2c0.1,0,0.2-0.2,0.2-0.3
		c0,0-0.1-0.1-0.3,0.1c-1.1-0.4-2-1-3-1.7v-0.5c0.9-0.2,0.3-1,0.5-1.4h0.5c0.1,0.6-0.2,1.3,0.2,1.9c0.5-0.2,0-1,0.8-0.9
		c0,0.5,0.3,0.6,0.6,0.5c0.6-0.2,0.9-0.7,0.8-1.5c-0.1-0.7,0.2-1.1,1-1.2c-0.2,0.9-1,1.8-0.3,2.7c0.6-0.9,0.1-2.3,1.4-2.9
		c0.4-0.1,0-0.4-0.1-0.4c-0.3-0.1-0.6,0-0.6-0.5c0.5,0.1,0.9,0,1.2-0.5c0.4,0.3,0.6,0.8,0.8,1.3c0.3,0.6,1.1,0.9,1.3,1.6h-0.9
		c0-0.3-0.1-0.5-0.6-0.5h0.1c0-0.1-0.1-0.3-0.1-0.4c-0.1-0.1-0.2-0.1-0.3,0.1c0,0.1,0.1,0.2,0.3,0.3c0.1,0.2,0.1,0.3,0.1,0.5
		c-0.3,0-0.5,0.2-0.5,0.5c-0.8,0.1-0.2-0.8-0.7-0.9c-0.2,0.8,0.1,1.3,0.7,1.4c0,0.3,0.1,0.4,0.4,0.5c0.2,0.1,0.8,0,0.4,0.4
		c-0.6,0.6-0.1,0.9,0.2,1.3c0.6,0.7,0.9-0.4,1.4-0.3c0.1,0.6,0,1.1-0.8,1s-0.5,0.5-0.6,0.9c-0.3,0-0.5,0.1-0.5,0.5
		c-0.6,0-0.6,0.4-0.4,0.8c0.3,0.5,0.7,0.8,1.3,0.6c0,0.3,0.1,0.5,0.5,0.5c0,0.1,0.1,0.4,0.2,0.4c0.3,0.1,0.3-0.1,0.3-0.4h1.4
		c0,0.2,0.1,0.5,0,0.6c-0.8,0.9,0,0.8,0.5,0.8c0,0.3,0.1,0.5,0.5,0.5c-0.1,0.8,0.2,1.1,0.9,0.9c0,0.4,0.3,0.5,0.6,0.5
		c0.6-0.1,0.3-0.6,0.4-0.9c0.3,0.2,0.6,0.3,0.9,0.5c0.1,0.8-0.1,1.6,0.2,2.4c0.2,0.6-0.2,1.4-0.3,2.1c0,0.1-0.2,0.1-0.4,0.2
		c-0.2-0.3-0.3-0.6-0.3-1.2c0.1-0.1-0.1-0.1-0.1,0c-0.1,0.2,0,0.3,0.2,0.2c0.1,0,0.2-0.2,0.2-0.3c0,0-0.1-0.1-0.3,0.1
		c-0.3,0.2-0.4,0.2-0.7,0.2h0.1c0-0.1-0.1-0.3-0.1-0.4c-0.1-0.1-0.2-0.1-0.3,0.1c0,0.1,0.1,0.2,0.3,0.3c0.1,0.3,0.3,0.6,0,0.9
		c-0.4,0.3-0.3,0.7-0.3,1c-0.3,0.1-0.6-0.1-0.9,0.1c-1.6,1.5-1.9,3.5-0.5,6c0,1,0.6,1.8,0.5,2.9c-0.1,1.7,1.5,3.7,3.1,4.2
		c0.1,0,0.3,0,0.4-0.1c0.2-0.1,0.2-0.5,0.1-0.6c-0.1-0.3-0.4-0.5-0.6-0.7c-0.2-0.2-0.3-0.4,0-0.5c0.2-0.1,0.5,0,0.7,0
		c0,0.3,0.1,0.5,0.7,0.6c0.1,0,0.1-0.1,0-0.1c-0.2-0.1-0.3,0-0.2,0.2c0,0.1,0.2,0.2,0.3,0.2c0,0,0.1-0.1-0.1-0.3
		c-0.2-0.3-0.2-0.5-0.2-0.6h0.9c0,0.6,0.5,0.4,0.8,0.5c0.3,0,0.6,0,0.6,0.5c-0.6-0.2-1,0.5-1.6,0.5c-0.2,0-0.2,0.5,0,0.4
		c0.9-0.2,0.5,0.8,0.9,1c0.2,0.1,0.7-0.2,0.6,0.3c0,0.3-0.4,0.1-0.6,0.2c-0.5,0.2-0.7-0.5-1.3-0.5h0.1c0-0.1-0.1-0.3-0.1-0.4
		c-0.1-0.1-0.2-0.1-0.3,0.1c0,0.1,0.1,0.2,0.3,0.3c0.1,0.1,0.1,0.3,0.1,0.5c0.1,1.1-0.4,2-1.1,2.8c-0.6,0.7-1.4,0.4-2.1,0.5
		c-0.3,0-0.8-0.2-1.1,0.4c0.6,0.1,1.5,0,0.8,1c-0.1,0.2-0.3,0.3,0,0.5c0.1,0.1,0.3,0.1,0.5,0c0.3-0.1,0.4-0.5,0.7-0.5L342,221.7
		L342,221.7z M332.4,188.3h0.2c0-0.1-0.1-0.3-0.1-0.4c-0.1-0.1-0.2-0.1-0.3,0.1c0,0.1,0.1,0.2,0.4,0.3c0,0.2,0,0.3,0,0.5
		c0,0.1,0.1,0.4,0.1,0.4c0.3,0.1,0.3-0.1,0.3-0.4c0-0.1,0-0.3,0.3-0.9c-0.1,0.1-0.2,0.1-0.3,0.2c-0.1,0.2,0,0.3,0.2,0.2
		c0.1-0.1,0.2-0.2,0.2-0.3c0,0-0.1-0.1-0.4,0.3H332.4L332.4,188.3z M334.2,187.8h0.2c0-0.1-0.1-0.3-0.1-0.4
		c-0.1-0.1-0.2-0.1-0.3,0.1c0,0.1,0.1,0.2,0.4,0.3c0,0.3,0,0.6-0.8,2.3c0.6-0.1,0-0.9,0.6-1c0.1,0,0.4-0.4-0.1-0.4
		c-0.2,0-0.5,0-0.6,0.1c-0.2,0.4-0.2,0.8,0.8-0.1c0.3,0,0.4-0.1,0.5-0.4C334.9,188.1,334.9,187.8,334.2,187.8L334.2,187.8z
		 M337.2,204.1c-0.1-0.1-0.1-0.2-0.2-0.3c-0.2-0.1-0.3,0-0.2,0.2c0,0.1,0.2,0.2,0.3,0.2c0,0,0.1-0.1-0.3-0.4
		c-0.1-0.4,0.2-0.9-0.5-0.9v-0.9c0.6-0.6,1.1-1.3,1.7-2c0.1-0.1,0.2-0.3,0.2-0.4c0-0.3,0.2-0.8-0.2-0.8c-0.5-0.1-0.2,0.4-0.3,0.6
		c-0.2,0.3-0.5,0.1-0.4-0.1c0.1-1-0.3-1.7-0.7-2.5c-0.5,0.1,0,1-0.7,0.9c-0.1-0.1-0.1-0.4-0.2-0.4c-0.3-0.1-0.3,0.1-0.3,0.4
		c-0.9,0.2-0.3,1-0.5,1.4c-0.7,0-0.4,0.6-0.5,0.9c-0.4,0-0.5,0.2-0.5,0.6v1.3c-0.7,0.2-0.5,1-0.9,1.3c-0.1,0.1,0,0.6,0.4,0.6
		c0.3,0,0.5-0.1,0.5-0.3c0-0.5,0-1,0-1.6h0.5c0.1,0.5-0.2,1,0.2,1.4c0.8-0.1,0.4-1.3,1.2-1.4c0.1,0.4-0.2,0.9,0.5,0.9
		C336.4,203.2,336.1,203.8,337.2,204.1L337.2,204.1z M337.5,202.9c0.1-0.2,0.2-0.3,0.2-0.3c0-0.4,0-0.8,0-1.1c0,0-0.2,0-0.2,0
		c-0.4,0.3-0.2,0.8-0.2,1.2c0,0.1,0.1,0.1,0.7-1.6c-0.1,0.1-0.2,0.1-0.3,0.2c-0.1,0.2,0,0.3,0.2,0.2c0.1,0,0.2-0.2,0.2-0.3
		C338.1,201.1,338.1,201.1,337.5,202.9L337.5,202.9z M339.1,200.9c0.2,0,0.3,0,0.5,0c0-0.8,0-1.6,0.5-2.3c0.1-0.2-0.1-0.4-0.4-0.4
		c-0.2,0-0.5,0-0.5,0.3C339.1,199.2,339.1,200.1,339.1,200.9L339.1,200.9z M342.6,218.8c-0.5-0.5-0.9-0.8-1.2-1.2
		c-0.1-0.2-0.2-0.2-0.3,0c0,0.1-0.1,0.1-0.1,0.2C341.2,218.5,341.5,219,342.6,218.8L342.6,218.8z M340.1,220.5
		c-0.2-0.1-0.3-0.2-0.4-0.2c-0.5,0-0.6,0.4-0.9,0.6c0,0,0.1,0.3,0.1,0.3c0.3,0.1,0.6,0,0.8-0.3C339.8,220.8,339.9,220.6,340.1,220.5
		L340.1,220.5z M340.8,197.6c0.3-0.2,0.2-0.4,0.2-0.6c0-0.1-0.2-0.2-0.3-0.2c-0.3,0.1-0.2,0.4-0.1,0.6
		C340.6,197.5,340.8,197.6,340.8,197.6z M340.1,218.4c0.1-0.1,0.4-0.1,0.4-0.2c0-0.3-0.2-0.3-0.4-0.3c-0.1,0-0.4,0.1-0.4,0.2
		C339.6,218.4,339.9,218.5,340.1,218.4L340.1,218.4z M331.4,187.9c-0.1,0.1-0.3,0.1-0.3,0.2c0,0.2-0.1,0.5,0.2,0.6
		c0.1,0,0.3-0.1,0.3-0.2C331.6,188.3,331.7,188,331.4,187.9z M335.2,189.3c-0.1,0.1-0.3,0.1-0.3,0.2c0,0.2-0.1,0.5,0.1,0.6
		c0.1,0,0.3-0.1,0.3-0.2C335.4,189.7,335.5,189.4,335.2,189.3z M333.9,190.8l-0.2-0.2c0,0.1-0.1,0.2-0.1,0.3c0,0,0.1,0.1,0.1,0.1
		C333.8,191,333.8,190.9,333.9,190.8z M338,197.8c-0.1,0.1-0.2,0.1-0.3,0.2c0,0,0.1,0.2,0.1,0.1c0.1,0,0.2-0.1,0.3-0.1
		C338.2,197.9,338,197.8,338,197.8z M323.6,180.2c-0.4,0-1,0.2-1-0.6c0-0.2-0.2-0.4-0.6-0.4h0.1c0-0.1-0.1-0.3-0.1-0.4
		c-0.1-0.1-0.2-0.1-0.3,0.1c0,0.1,0.1,0.2,0.3,0.3c0.1,0.2,0.2,0.5,0.1,0.7c-0.3,0.5-0.5,0-0.6-0.2c-0.2-0.2-0.5-2.1-0.5-2.4
		c0.1-0.6-1.3-2.3-1.8-2.3c-0.6,0-1.2,0-1.9,0c-0.9-0.1-1.7-0.9-1.7-1.8c0-0.6,0.1-0.5,0.6-0.2c0.4,0.3,1-0.3,1.1-0.9
		c0-0.1,0.1-0.1,0.1-0.2c-0.1-0.2-0.4-0.3-0.6-0.2c-0.8,0.1-1-0.6-1.5-0.9c-0.2-0.1-0.2-0.7-0.7-0.3c-0.3,0.3-0.7,0.4-0.9,0
		c-0.2-0.4,0.6-1.6,1.1-1.6c0.4,0,0.8,0,1.4,0c-0.6-0.8-1.5-1.2-1-2.2c0.3-0.6,0.1-0.8-0.3-0.5c-0.4,0.2-0.5,0.4-0.9,0
		c-0.3-0.3-0.1-0.4,0.1-0.7c0.7-1.2,1.4-1.4,2.5-0.8c0.6,0.3,1,1,1.7,1.5c0-0.7,0.7-1.3-0.6-1.5c-0.5-0.1,0-0.5,0.2-0.6
		c0.8-0.5,1-0.5,1.9,0.8c-0.1,0.1,0.2-0.3-0.2-0.2c-0.1,0-0.2,0.2-0.2,0.3c0,0.2,0.1,0.4,0.2,0.6c0.2-0.1,0.3-0.2,0.3-0.7
		c1-0.1,0.9,0.9,1.4,1.4c0.2,0.2-0.1,0.5-0.2,0.8c-0.2,0.6-0.8,1.1-0.7,1.8c-0.5,0.1-0.9-0.1-1.2-0.5c-0.6-0.6-2-0.7-1.6-2.1
		c0,0-0.2-0.1-0.3-0.2c-0.1,0.5-0.4,0.9-1,1c0,0-0.1,0.3-0.1,0.4c0,0.2,0,0.5,0.4,0.3c0.2-0.1,0.3-0.6,0.5-0.2
		c0.2,0.7,0.5,1.2,1.3,1.3c0.3,0,0.2,0.4,0.2,0.6c-0.1,0.2-0.2,0.3-0.5,0.1c-0.7-0.6-1.3-0.2-1.7,0.4c-0.1,0.1-0.1,0.4-0.1,0.6
		c0.1,0.3,0.4,0.2,0.6,0.2c1.3-0.4,1.3-0.4,2.1-0.1c-0.2,0.3-0.8-0.1-0.9,0.5c0,0.6,0.4,0.6,0.8,0.6c0.2,0,0.6-0.1,0.6,0.3
		c-0.4,0.3-1.1-0.2-1.3,0.4c-0.1,0.5-0.3,1.2,0.2,1.7c0.1,0.1,0.2,0.3,0.3,0.3c0.3,0,0.3-0.2,0.3-0.4c-0.1-1,0.7-1.4,1.4-1.8
		c0,0.8-0.1,1.6,0.9,1.9c0.1,0.4-0.1,0.9,0.1,1.3c0.2,0.3,0.8-0.2,0.7,0.5c-0.1,0.3-0.7-0.1-0.7,0.6h2.3c-0.1,1-1.2,0.8-2.3,1.4h2.3
		v0.6c0.1-0.1,0-0.2-0.2-0.1c-0.2,0.1-0.4,0.1-0.6,0.1c-0.1,0.1-0.1,0.2,0.1,0.3c0.3,0.1,0.6,0.1,0.8-0.3c0.3-0.1,0.5-0.2,0.5-0.6
		h0.5c0,0.1,0.1,0.4,0.2,0.4c0.3,0.1,0.3-0.1,0.3-0.4c0.3,0,0.5-0.1,0.5-0.5h0.5c0,0.3,0.1,0.5,0.5,0.5c0,0.5-0.5,0.6-0.8,1
		c-0.3,0.4-0.4,0.8,0.3,0.9c0,0.3,0.1,0.5,0.7,0.6c0.1,0.1,0.1-0.1,0-0.1c-0.2-0.1-0.3,0-0.2,0.2c0.1,0.1,0.2,0.2,0.3,0.2
		c0,0,0.1-0.1-0.1-0.3c-0.2-0.3-0.2-0.4-0.2-0.6c1-0.7,1-0.8,0-1.9c0-0.3-0.1-0.5-0.5-0.5c0-0.2,0-0.3,0.1-0.7c0-0.1-0.1-0.1-0.1,0
		c-0.1,0.2,0,0.3,0.2,0.2c0.1,0,0.2-0.2,0.2-0.3c0,0-0.1-0.1-0.3,0.1c-0.5,0.2-0.6,0.4-0.6,0.7H325c0-0.3-0.1-0.5-0.5-0.5v-0.5
		c0.3,0,0.6,0,0.8-0.1c0.3-0.3-0.3-0.3-0.3-0.6c0-0.1,0-0.1,0-0.2c0.1-0.1,0.4-0.1,0.4-0.2c0.1-0.3-0.1-0.3-0.4-0.3
		c-0.1-0.5-0.4-0.8-0.9-0.9c-0.1-0.3,0.1-0.6-0.2-0.9c-1.1-1-2-2.1-2.7-3.4c1.5,0.1,2.1,1.3,2.8,2.4c0.9,1.4,2.1,2.5,3.6,3.3
		c0.4,0.2,0.5,0.3,0.9,0c0.3-0.3,0.1-0.4-0.1-0.7c-0.1-0.1-0.1-0.5,0-0.6c0.2-0.4,0.3,0,0.5,0.1c0.6,0.3,1.2,0,1.8,0.2
		c0.2,0.3,0.5,0.7,0.4,1c-0.1,1-0.6-0.4-0.8,0.1c-0.1,0.2-1.1,0.5,0,0.8c0.6,0.1,0.6,0.5,0.3,0.8c-0.5,0.5-0.2,1-0.3,1.5
		c-0.1,0.1-0.4,0.1-0.4,0.2c-0.1,0.3,0.1,0.3,0.4,0.3c0,0.3-0.1,0.8-0.1,0.8c-0.9,0.1-0.6,0.5-0.4,1c0.1,0.3,0.3,0.9-0.5,1h0.1
		c0-0.1-0.1-0.3-0.1-0.4c-0.1-0.1-0.2-0.1-0.3,0.1c0,0.1,0.1,0.2,0.3,0.3c0.2,0.8,1.2,0.5,1.5,0.9v0.5c-0.2,0-0.6,0.1-0.7,0
		c-0.7-0.8-0.9-0.5-1.4,0.3c-0.4,0.9-0.7,0.8-1-0.2c0.3-0.7-0.1-0.6-0.4-0.6c-0.4,0.1-0.3,0.4-0.3,0.7c0.1,0.5,0.6,0.2,0.7,0.2
		c0.3-0.2,0.5-0.4,0.1-0.3c-1.3,0.4-2,0.5-1.2-0.4c0.1-0.1,0-0.4-0.1-0.6c1.9-0.1,2.4-0.7,2.2-2.3c-0.5,0.3-0.6,0.8-0.8,1.3
		c-0.2,0.5-0.9,0.5-1.4,1.1c-0.2,0.1-0.5-0.2-0.7,0.2c-0.3,0.4-0.6,0.3-1,0.3C324.6,182,324.2,181.1,323.6,180.2
		c0.4-0.1,0.9,0.2,1.1-0.9c-0.1-0.4-0.2-0.2-0.2,0c0,0.1,0,0.4,0,0.4c0.2,0.1,0.4-0.1,0.5-0.3c0-0.2-0.1-0.4-0.3-0.1
		C324.2,179.8,323.6,179.5,323.6,180.2L323.6,180.2z M319.7,174.1h0.2c0-0.1-0.1-0.3-0.1-0.4c-0.1-0.1-0.2-0.1-0.3,0.1
		c0,0.1,0.1,0.2,0.8,0.6c-0.1-0.1-0.1-0.2-0.2-0.3c-0.2-0.1-0.3,0-0.2,0.2c0,0.1,0.2,0.2,0.3,0.2
		C320.2,174.5,320.2,174.5,319.7,174.1L319.7,174.1z M329.3,177.6v-0.2c-0.1,0-0.3,0.1-0.4,0.1c-0.1,0.1-0.1,0.2,0.1,0.3
		c0.1,0,0.2-0.1,0.5-0.8c-0.1,0.1-0.2,0.1-0.3,0.2c-0.1,0.2,0,0.3,0.2,0.2c0.1-0.1,0.2-0.2,0.2-0.3
		C329.7,177.1,329.6,177.1,329.3,177.6z M328.3,179.3c0,0.1,0.1,0.4,0.2,0.4c0.3,0.1,0.3-0.1,0.3-0.4c0.5,0,0.6-0.5,0.4-0.7
		c-0.3-0.4-0.8-0.4-0.9,0.2c-0.1,0-0.4,0.1-0.4,0.2C327.9,179.3,328.1,179.3,328.3,179.3z M319.6,167.9c0.3-0.2,0.5-0.4,0.7-0.7
		c0.1-0.1,0.1-0.5-0.1-0.6c-0.4-0.2-0.9-0.5-1.1-0.4c-0.5,0.4,0,0.7,0.3,1.1C319.5,167.5,319.2,167.9,319.6,167.9L319.6,167.9z
		 M317.5,174.2c0-0.3-0.1-0.6-0.5-0.6c-0.1,0-0.3,0.1-0.4,0.2l0.7,0.8C317.4,174.5,317.5,174.3,317.5,174.2L317.5,174.2z
		 M315.2,169.4c-0.2,0-0.4,0-0.4,0.3c0,0.1,0.2,0.1,0.4,0.2c0.2,0,0.4,0,0.4-0.3C315.5,169.5,315.3,169.5,315.2,169.4L315.2,169.4z
		 M315.6,165.6c0.1-0.1,0.4-0.1,0.4-0.2c0-0.3-0.2-0.3-0.4-0.3c-0.1,0-0.4,0.1-0.4,0.2C315.2,165.6,315.4,165.7,315.6,165.6
		L315.6,165.6z M327.4,177c0.1,0.2,0.2,0.3,0.3,0.4c0.1-0.2,0.2-0.4,0.2-0.6c0-0.1-0.1-0.2-0.2-0.4
		C327.5,176.7,327.4,176.8,327.4,177L327.4,177z M325.8,182.1l0.2-0.2c-0.1-0.1-0.2-0.1-0.3-0.2c0,0-0.1,0.1-0.1,0.2
		C325.6,182,325.7,182,325.8,182.1z M325.4,181c0-0.1-0.1-0.2-0.2-0.3c-0.1,0.1-0.2,0.1-0.2,0.1c0,0.1,0.1,0.2,0.2,0.3L325.4,181z
		 M327.6,179.9l-0.2,0.2c0.1,0,0.2,0.1,0.3,0.1c0,0,0.1-0.1,0.1-0.1C327.8,180,327.7,179.9,327.6,179.9z"/>
	<path fill="#2B2E33" d="M330.7,205.7c-0.1,0.6-0.6,0.9-1,1.2c-0.5,0.4-0.6,1-0.3,1.4c0.3,0.5,0.8,1.1,1.5,0.3c0.2-0.2,0.3,0.1,0.3,0.4
		c0,0.1-0.1,0.4-0.2,0.4c-0.7,0.1-1.4,0.3-1.9-0.4c-0.5-0.7-1.3-0.5-1.9-0.5c-0.2,0-0.7,0.3-0.6,0.8c0.1,0.2,0.5,0.2,0.8,0.3
		c-0.2,0.3-0.5,0.5-0.7,0.7c-1.1-0.6-1.6-1.7-2.4-2.9c-0.2,0.7-0.6,1.2-1,1.7c-0.6,0.6-1.3,0.4-1.9,0.2c-0.2-0.1-0.4-0.3-0.5-0.5
		c0-0.2,0.2-0.2,0.4-0.3c0.5-0.1,0.8-0.4,1.3-1.4c0.1-0.4-0.3-0.6-0.4,0c-0.1,0.5,0.4,0.7,0.6,0.8c0.5,0.1,0.7-0.3,0.8-0.7
		c0.1-0.4-0.2-0.5-1,0c-1.2,0.6-1.5,0.3-1.2-0.7c0-0.1-0.1-0.1-0.1,0c-0.1,0.2,0,0.3,0.2,0.2c0.1-0.1,0.2-0.2,0.2-0.3
		c0,0-0.1-0.1-0.3,0.1c-0.6,0.3-1,0.9-1.6,0.7c-0.3-0.1-0.7-0.2-0.8,0.2c-0.1,0.6-0.3,1.1-1,0.5c-0.6-0.5-0.8-1.1-0.1-1.7
		c0.6-0.6,0.7-1.6,1.6-2c-0.5-0.6-1.4,0.1-1.8-0.8c-0.2-0.5-0.5-0.3-0.8,0c-0.5,0.4-0.8-0.2-1.1-0.5c-0.3-0.4,0.1-0.6,0.3-1
		c0.6-0.9,1.7-0.8,2.5-1.2c0.2-0.1,0.6,0.1,0.8-0.3c-0.3-0.5-0.9-0.1-1.3-0.3c0.2-0.7,0.6-0.8,1.2-0.9c0.7-0.1,1.1,0.6,1.7,0.5
		c1.1-0.3,0.8,0.8,1.1,1.2c0.8,1.1,1,1.3,2.3,1.2c0.6-0.1,1.1-0.4,1.1-1c0-2.1,1.7-2.7,3-3.7c0.6-0.5,1.4-0.8,2-1.4
		c0.7-0.7,1.7-0.9,2.6-1c0.9,0,1.8,0,2.3,0.9c-0.7,0-0.4,0.6-0.5,0.9h-0.5c0-0.1,0-0.3,0-0.5c0-0.1-0.1-0.4-0.1-0.4
		c-0.3-0.1-0.3,0.1-0.3,0.4v0.5h-0.5c-0.1-0.3,0.2-0.8-0.4-0.9c-0.3-0.1-0.6,0-0.6,0.5c-0.9-0.5-0.9-0.5-0.9,0.5h-0.5
		c0-0.1-0.1-0.4-0.2-0.4c-0.3-0.1-0.3,0.1-0.3,0.4c-0.5,0.1-0.8,0.4-0.9,0.9c-1.1,0-1.9,0.8-2.7,1.5c-0.6,0.5-0.6,1.2-0.6,2V201
		c-0.1,0-0.3,0.1-0.4,0.1c-0.1,0.1-0.1,0.2,0.1,0.3c0.1,0,0.2-0.1,0.3-0.3c0.4-0.1,0.6,0.2,0.4,0.5c-0.2,0.5-0.6,0.9-0.4,1.4
		c0,0.1,0.2,0.2,0.2,0.3c0.1-0.1,0.2-0.2,0.2-0.4c0-0.2,0-0.4,0.3-0.5c0,0,0.2,0.2,0.2,0.4c0,0.3-0.1,0.6-0.1,0.9
		c0,0.2-0.5,0.2-0.2,0.5c0.1,0.1,0.4,0.1,0.6,0c0.2-0.1,0.4-0.3,0.5-0.3c0.3,0.2,0.1,0.6,0.2,0.8c-0.2,0-0.3,0-0.5,0
		c-1.1,0.3-1.6,0.1-1.9-0.9c-0.1-0.4-0.4-0.8-0.7-0.9c-1-0.3-2-0.5-3-0.6c-1.5-0.1-1.9-0.1-2.7-0.5c-0.3-0.1-0.4-0.5-0.8-0.5h0.1
		c0-0.1-0.1-0.3-0.1-0.4c-0.1-0.1-0.2-0.1-0.3,0.1c0,0.1,0.1,0.2,0.3,0.3c0.1,0.3,0,0.6,0.1,0.9c0.1,0.4-0.6,0.5-0.3,0.9
		c0.2,0,0.3,0,0.5,0.1c0.7,0.1,1.8-0.4,2.1,0.3c0.4,0.9-1.1,0.7-1.4,1.4c-0.1,0.2-0.2,0.3-0.4,0.5c0.9,0.7,0.9,0.7,1.4,0.1
		c0.4-0.5,0.8-0.9,1.1-1.2c0.4,0.2,0.3,0.5,0.3,0.7c0,0.3-0.1,0.6,0.4,0.7c0.3,0,0.6-0.1,0.6-0.5c0-0.1,0.1-0.4,0.2-0.4
		c0.3,0,0.3,0.2,0.3,0.5c0,0.2,0,0.5,0,0.7c0.2,0.3,0.4,0.1,0.4-0.1c0.1-1.5,0.7,0.3,0.9-0.2c0,0.6-0.8,0.8-0.9,1.4
		c0.9,0,1.4-0.5,1.4-1.4c0.3-0.1,0.4,0.1,0.5,0.4c0,0.3,0,0.6,0.5,0.6c0,0.5-0.5,0.6-0.6,0.9c-0.1,0.1-0.5,0.2-0.1,0.5
		c0.2,0.1,0.5,0.1,0.6,0c0.4-0.3,0.8-0.7,0.6-1.3c1,0.1,0.1,1.1,0.7,1.4c0.2-0.4,1-0.6,0.2-1.2c-0.2-0.1-0.1-0.7,0.3-0.7
		c1.3,0.2,1-0.7,1.1-1.4h0.5C329.6,205.6,329.9,205.9,330.7,205.7L330.7,205.7z M317.5,201.5c-0.1,0.1-0.4,0.1-0.4,0.1
		c0,0.4,0.4,0.5,0.6,0.8c0.1-0.1,0.2-0.2,0.2-0.4C318,201.7,317.9,201.4,317.5,201.5L317.5,201.5z M321.3,200.9l-0.2-0.4
		c-0.2,0.3-0.4,0.5-0.6,0.8c0.1,0,0.3,0.1,0.4,0.1C321.2,201.5,321.3,201.2,321.3,200.9z M318.9,206.4c0-0.1-0.1-0.2-0.1-0.1
		c-0.1,0-0.2,0.1-0.3,0.1c0.1,0,0.1,0.2,0.2,0.1C318.7,206.5,318.8,206.5,318.9,206.4z M322.3,208.8l0.2,0.2
		c0.1-0.1,0.1-0.2,0.2-0.3c0,0-0.1-0.1-0.2-0.1C322.4,208.6,322.3,208.7,322.3,208.8z M322.1,191.1c0.5,1.1-0.7,0.9-1.1,1.5
		c-0.3-1.2,0-2.5-1.5-2.8c0,1.1-1,2-1.6,3c-0.1,0.2-0.4,0.2-0.6,0.2c-0.2-0.1-0.3-0.3-0.3-0.6c0.2-0.9-0.4-1.2-0.9-1.7
		c-0.1-0.1-0.1-0.5-0.3-0.5c-0.2,0-0.1,0.4-0.2,0.6c-0.3,0.6-0.9,0.4-1.2,0.2c-0.6-0.5-0.7-0.4-0.7,0.3c0,0.3,0.1,0.7-0.4,0.7
		c-0.2,0-0.4-0.1-0.6-0.2c-0.5-0.3-0.5-0.8-0.5-1.2c0-0.4,0.4-0.6,0.5-1c0.3-1.2,0.3-1.2,1.7-1.3c0.2,0,0.5,0.1,0.7-0.3
		c-0.5-0.4-1.4,0.1-1.8-0.7c-0.1-0.1-0.5,0-0.6,0.2c-0.1,0.2,0.2,0.9-0.5,0.4c-0.5-0.4-0.6-0.9-0.3-1.4c0.2-0.5,2.9-1.3,3.5-1.1
		c0.3,0.1,0.7,0.4,0.7,1.1c0.2-0.7-0.8,0.1-1.1-0.5c-0.2-0.4-0.3,0.3-0.3,0.4c0,0.2-0.1,1.1,0.3,0.5c0.4-0.6,1,0.9,1.1-0.5
		c1.7-0.7,3.1-2,4.8-2.5c0.5-0.1,0.9,0,1.3-0.1c-0.2,0.7-1,0.8-1.5,0.9c-0.7,0.1-1.3,0.3-1.8,1c-0.4-0.1-0.5,0.4-0.7,0.5
		c-1.3,0.4-2,1.4-2.1,2.8c-0.2,0-0.3,0-0.8,0.7c0.3,0.4-0.6-0.6,0.4-0.7c-0.3-0.9-1-0.3-1.5-0.5c-0.1,0-0.2,0.1-0.3,0.2
		c0.5,0.5,1,0.9,1.5,0.9c0.4-0.6,0.4-0.3,0.5-0.3c0.3,0.1,0.3-0.1,0.3-0.4c0.7,0,0.3-0.8,0.7-0.9c0.2-0.1,0.2-0.7,0.7-0.3
		c0.3,0.2,0.7,0.5,0.5,0.9c-0.2,0.3-0.5,0.5-0.8,0.9c-0.4,0.5-0.2,0.8,0.4,0.9c0.2,0,0.4,0.2,0.4,0.6v-0.1c-0.1,0-0.3,0.1-0.4,0.1
		c-0.1,0.1-0.1,0.2,0.1,0.3c0.1,0,0.2-0.1,0.3-0.3c0.4-0.3,0.9-0.4,0.7-1.1c-0.3-0.7-0.2-0.7,0.9-0.9c0.1,0,0.1,0,0.2-0.1
		c0.6-0.6,0.9-0.6,1.2,0.4c0.1,0.3,1.1,0.6,1.2,0.5c0.4-0.5-0.2-0.8-0.5-1.1c0-0.1-0.1-0.1-0.2-0.2c-0.4-0.5-0.3-0.9,0.4-0.9
		c0.4,0,0.9-0.2,1.3,0.2c-0.3,0.1-0.6,0.3-1,0.5c0.9,0.3,1.5,0.6,1.5-0.8c0-0.7,0.6-0.8,1.4-0.4v0.7c-0.1,0.1,0.2-0.3-0.2-0.2
		c-0.1,0-0.2,0.2-0.2,0.3c0,0.2,0.1,0.4,0.2,0.6c0.2-0.1,0.3-0.2,0.3-0.7c0.3-0.2,0.6-0.2,0.9-0.2c0,0.1,0.1,0.4,0.2,0.4
		c0.3,0.1,0.3-0.1,0.3-0.4h0.5c0,0.1,0.1,0.4,0.2,0.4c0.3,0.1,0.3-0.1,0.3-0.4c0.4,0,0.4-0.3,0.5-0.6c0-0.3-0.2-0.8,0.5-0.8
		c0.2,0.3,0.3,0.6,0.5,0.9c-0.1,0-0.4,0.1-0.4,0.2c-0.1,0.3,0.1,0.3,0.4,0.3c-0.2,0.5-0.5,0.9-1.1,0.9h-1.9c-0.7,0,0.6,1.1-0.5,1
		c-0.6,0-1.1-0.2-1.7-0.5c-0.2-0.1-0.4,0.1-0.5,0.3C322.9,190.1,323,190.8,322.1,191.1l0.1,0c0-0.1-0.1-0.3-0.1-0.4
		c-0.1-0.1-0.2-0.1-0.3,0.1C321.8,190.9,322,191,322.1,191.1L322.1,191.1z M314.1,186.7c-0.1-0.1-0.1-0.3-0.2-0.3
		c-0.2,0-0.5-0.1-0.6,0.2c0,0.1,0.1,0.3,0.2,0.3C313.7,186.8,314,186.9,314.1,186.7z M313.8,189.9c0-0.1-0.1-0.2-0.1-0.1
		c-0.1,0-0.2,0.1-0.3,0.1c0,0,0.1,0.2,0.1,0.1C313.5,190,313.6,190,313.8,189.9z M335.4,171.3c0.1-0.3-0.2-0.8,0.4-0.9
		c0.4-0.1,0.8,0.2,1-0.2c-0.3-0.5-0.9,0-1.2-0.3c-0.3-0.3-0.7-0.3-1-0.4c-1.1-0.4-1.7-1.4-1.4-2.2c0,0,0.6-1.5,0.8,0
		c0.9,0.2,1.6,0.9,2.7,0.7c0.1-0.5-0.4-0.6-0.5-0.8c-0.2-0.3-0.6-0.5-0.8-0.8c-0.6-0.7-0.6-1,0.3-1.9c0.1,0.1,0.1-0.1,0-0.1
		c-0.2-0.1-0.3,0-0.2,0.2c0,0.1,0.2,0.2,0.3,0.2c0,0,0.1-0.1-0.1-0.3c-0.2-0.8-0.5-1.4,0.8-1.7c1.4-0.2,2.8-0.3,4.2-0.4v0.5
		c-0.6,0-0.5,0.7-0.4,0.7c1,0.1,1.9,0.8,3,0.6c0.4-0.1,0.6-0.8,1.2-0.2c-0.7,0.2-0.8,1.4-1.8,0.8c-0.4,0.8-1.3,0.8-2.2,1
		c0.7,0.3,1.1,0.5,1.6,0.8c0.1,0.5,0.7,0.8,0.5,1.4c-0.7-0.2-1-1.1-1.8-1.2c-0.4-0.1-0.7-0.6-1-0.9c1.1-1-0.5-0.6-0.5-1
		c0.3-0.1,0.6-0.3,0.9-0.4c-0.8,0-1-0.5-0.8-1.4c0-0.1-0.1-0.1-0.1,0c-0.1,0.2,0,0.3,0.2,0.2c0.1,0,0.2-0.2,0.2-0.3
		c0,0-0.1-0.1-0.3,0.1c-0.5,0.2-0.8,0.2-1.1,0.2c-0.1-0.1-0.1-0.4-0.2-0.4c-0.3-0.1-0.3,0.1-0.3,0.4c-0.3,0.1-0.9-0.1-0.8,0.1
		c0.2,0.5,0.4,0.9-0.4,0.9c0,0.6-0.9,1.1-0.6,1.6c0.4,0.6,0.8,1.4,1.8,1.2v0.7c-0.1,0.1,0.2-0.3-0.2-0.2c-0.1,0-0.2,0.2-0.2,0.3
		c0,0.2,0.1,0.4,0.2,0.6c0.2-0.1,0.3-0.2,0.3-0.7c1.4-0.5,2.1,0.6,2.8,1.5c0.2,0.3,0.3,1.2-0.2,1.7c-0.2,0.3-0.7,0.4-0.7,0.9h-2.4
		c0-0.2,0-0.3,0.2-0.9c-0.1-0.4-0.2-0.2-0.2,0c0,0.1,0,0.4,0,0.4c0.2,0.1,0.4-0.1,0.5-0.3c0-0.2-0.1-0.4-0.3-0.1
		C336.7,170.8,336,170.8,335.4,171.3L335.4,171.3z M337.6,169.2c0.5,0.2,0.6,0.8,1.1,0.7c0.4-0.1,0.3,0.9,0.8,0.3
		c0.3-0.4-0.1-0.7-0.3-0.9c-0.5-0.5-0.9-0.4-0.1,1.6c0.1-0.4-0.1-0.5-0.4-0.4c-0.2,0-0.5,0.1-0.4,0.3c0.1,0.2,0.4,0.5,0.6,0.6
		C339,171.3,339.2,171.1,337.6,169.2L337.6,169.2z M334.2,168.5h0.2c0-0.1-0.1-0.3-0.1-0.4c-0.1-0.1-0.2-0.1-0.3,0.1
		c0,0.1,0.1,0.2,0.5,0.3c1.4,0.8,1.6,0.9,2.7,0.6C336.3,168.6,335.5,168.2,334.2,168.5L334.2,168.5z M341,164.7
		c0.1-0.1,0.4-0.1,0.4-0.2c0.1-0.3-0.2-0.3-0.4-0.3c-0.1,0-0.4,0.1-0.4,0.2C340.6,164.7,340.8,164.7,341,164.7L341,164.7z"/>
	<path fill="#2B2E33" d="M322.2,184c0.5-0.9,1.4-1,2.4-0.9c0,0.6-0.5,0.3-0.7,0.5c-0.4,0.4,0.5,0.6,0.3,1c-0.1,0.2-0.2,0.4-0.5,0.3
		C323.4,184.2,322.9,183.9,322.2,184z M320.3,168.9c0.8-0.1,1.1,0.2,0.9,0.9C320.8,169.8,320.4,169.4,320.3,168.9z M348.1,219.4v1.8
		c0,0.3,0,0.6-0.6,0.6c0.1,0.1,0.2,0,0.1-0.2c-0.1-0.2-0.1-0.4-0.1-0.6c-0.1-0.1-0.2-0.1-0.3,0.1c-0.1,0.3-0.1,0.6,0.3,0.8
		c-0.2,0.8-0.8,0.5-1.3,0.2c-0.1,0,0.9-0.4,0-0.7c-0.3-0.1-0.6-0.3-1-0.5c0.5-0.4,0.1-1.3,1.5-1.1c0.2,0.1-0.1-0.1-0.4-0.3
		c-0.2-0.1-0.2,0-0.2,0.2c0,0.4,0,0.8,0.5,0.7c0.1,0,0.2-0.1,0.1-0.6c-0.6-0.5-0.6-0.6-0.6-0.8c0.2,0.5,0.8-1.4,1,0.1
		C347.2,219.6,347.7,219.3,348.1,219.4L348.1,219.4z M359.8,201.9c0,0.8,0.1,1.6-0.9,1.9c0-0.4-0.1-0.8,0.3-1
		c0.3-0.2,0.1-0.6,0.2-0.9L359.8,201.9L359.8,201.9z M358.9,203.8c0.1,0.7-0.2,1.2-0.9,1.4c-0.2-0.6,0.4-0.9,0.5-1.4H358.9z
		 M357.9,205.2c0,0.3-0.1,0.5-0.5,0.5C357.5,205.4,357.6,205.2,357.9,205.2z M348.5,218.9c0,0.3-0.1,0.5-0.5,0.5
		C348.1,219,348.2,218.9,348.5,218.9z M343.8,177c-0.3,0-0.5,0.1-0.5,0.5c-0.7,0-1.3,0-1.8,0.6c-1.2,1.2-1.3,1.1-2.5-0.1
		c-0.2-0.1-0.4-0.3-0.3-0.6c0.1,0,0.4-0.1,0.4-0.2c0.1-0.3-0.1-0.3-0.4-0.3c0.1-1,1.4,0,1.6-0.9c0,0,0.3,0.2,0.2,0.4
		c-0.1,0.2-0.2,0.4-0.4,0.6c-0.2,0.3-0.8,0.5-0.2,1c0.7,0.6,0.7-0.2,1-0.4c0.2-0.1,0.6-0.3,0.5-0.7c0.4,0,0.8,0.1,1.2,0
		c0.3-0.1,0.6-0.4,0.6-0.6c0-0.4-0.5-0.2-0.6-0.3c-0.5-0.4,0.5-0.5,0.3-0.9c0.4,0,0.8,0.8,1.2,0c0.1-0.1,0.4,0,0.7,0v0.5
		c-0.7,0-0.4,0.6-0.5,0.9C344,176.5,343.8,176.6,343.8,177L343.8,177z M331.6,178.4c0.3-1.1,1.1-0.9,1.9-1c0.5,0,0.5-0.2,0-0.9
		c0.2-0.7,0.8-1,1.2-1.5c0.3,0.5,0.3,0.7,0,1c-0.3,0.2-0.4,0.5-0.2,0.8c0.4,0.4,0.4-0.3,0.6-0.3c0.8-0.1,1.5,0,2.1,0.5
		c0,0.3-0.1,0.5-0.4,0.5c-1.4-0.1-1.5-0.1-2.7,0.5C333.4,178.3,332.5,178.4,331.6,178.4L331.6,178.4z M339.6,194.9
		c0-0.3-0.1-0.5-0.5-0.5c-0.2-0.5,0.4-1.2-0.5-1.4c-0.2-0.3-0.3-0.6-0.5-0.9c1-0.1,0-1.1,0.8-1.4c0.6,0.2-0.3,1.3,0.7,1.4
		c0,0.5,0.4,0.6,0.6,0.9c0.4,0.3,0.3,0.7,0.3,1.1v-0.1c-0.1,0-0.3,0.1-0.4,0.1c-0.1,0.1-0.1,0.2,0.1,0.3c0.1,0,0.2-0.1,0.3-0.3
		c0.4-0.1,0.4,0.2,0.5,0.5c0,0.2,0.2,0.4,0.5,0.4v0.5c-0.3,0.2-0.6,0.3-0.9,0.5C340.7,195,340.4,194.7,339.6,194.9L339.6,194.9z"/>
	<path fill="#2B2E33" d="M337.3,176.9c0-0.5,0-0.9,0.1-1.9c-0.1-0.4-0.6-0.7-0.4-0.1c0.1,0.2,0.4,0.3,0.3,0.6c0.5,0,0.8-0.4,0.8-0.7
		c0.1-0.4-0.4-0.2-0.8,0.2c-1,1-0.9,0.9-1,0.2c-0.1-0.7,0.3-1.1,0.5-1.6c0.9,0,1.7,0.5,2.5,1.3c-0.4,0.3-0.8,0.6-1.2,0.9
		c-0.8,0.5,0.4,0.7,0.1,1.1H337.3L337.3,176.9z M342.4,190.9c-0.2,0.2-0.4,0.2-0.6,0.2c-0.1,0-0.2,0.2-0.3,0.3
		c0.2,0.3,0.5,0.1,0.8,0.2c0.4,0,0.8-0.2,1,0.3c0.1,0.5-0.2,0.7-0.5,0.9c-0.4,0.3-0.9,0.3-1.2,0c-0.3-0.2-0.5-0.5-0.6-0.9
		c-0.2-0.7-0.2-1.1,0.4-1.2C341.7,190.6,342.1,190.5,342.4,190.9L342.4,190.9z M342.4,192.3c0-0.1-0.1-0.2-0.2-0.3
		c-0.1,0-0.2,0.1-0.2,0.1c0,0.1,0.1,0.2,0.2,0.3L342.4,192.3z M337.3,188.7c0-1-0.8-1.8-0.5-2.8c0.1,0,0.2,0,0.2,0
		c0.4-0.2,0.1-1.3,0.9-0.9c1,0.5-0.2,0.9-0.2,1.5v-0.1c-0.1,0-0.3,0.1-0.4,0.1c-0.1,0.1-0.1,0.2,0.1,0.3c0.1,0,0.2-0.1,0.3-0.3
		c0.1-0.1,0.4,0,0.4,0.1C338.2,186.8,337.5,188.4,337.3,188.7L337.3,188.7z M335.4,191.1c0.3,0,0.5-0.1,0.5-0.5
		c0.6-0.5,1.1-0.4,1.9-0.1c0.9,0.4,0.3,1,0.5,1.5c-0.4,0.1-0.5-0.3-0.7-0.5c-0.3-0.2-0.6-0.7-1-0.4c-0.5,0.4,0.5,0.5,0.3,0.9
		c-0.1,0.1,0,0.3,0,0.5h-0.5C336,192,335.7,191.6,335.4,191.1L335.4,191.1z M338.2,180c0.1,0.7-0.4,1-0.9,1.2
		c-0.5,0.1-0.9,0-1.2-0.4c-0.5-0.7-0.3-1.9,0.5-2.4c0.1-0.1,0.3,0,0.5,0c0.2,0.1,0.2,0.2,0.1,0.3c-0.2,0.2-0.5,0.4-0.7,0.7
		c-0.3,0.4-0.1,0.7,0.2,1c0.4,0.5,0.6,0.4,0.6-0.2c0-0.4,0.4-0.4,0.7-0.4C338.2,179.7,338.3,179.8,338.2,180L338.2,180z
		 M344.3,194.4c0,0.6-0.7,0.7-0.9,1.2c0.3,0.5,0.9,0,1.3,0.4c-0.3,0.5-0.7,0.8-1.4,0.8c-0.8,0-0.2-1.1-1-1
		C342.8,195,343.3,194.3,344.3,194.4L344.3,194.4z M341.1,182.6c-0.8,0-1.4-0.6-1.4-1.5c0-0.2,0.2-0.4,0.5-0.3
		c0.2,0.1,0.5-0.2,0.5,0.2c0,0.2,0,0.3,0,0.5c0.1,0.8,0.3,0.9,0.9,0.5c0.2-0.1,0.4-0.3,0.5-0.5c0.1-0.2,0.3-0.2,0.3-0.1
		c0.1,0.2,0.2,0.5,0.1,0.6C342.1,182.3,341.7,182.8,341.1,182.6L341.1,182.6z M341.4,185.8c-0.7-0.1-1.5,0.7-2-0.7
		c-0.1-0.5,0.5-1.1-0.3-1.3c0.2-0.2,0.4-0.4,0.7-0.7c0.4,0.3,0.2,0.7,0.2,1C340.1,185.3,340.1,185.3,341.4,185.8L341.4,185.8z
		 M333.5,180.7c0,0.8-1,0.3-1.1,0.9c-0.3-0.3-0.7-0.6-1-0.9c-0.3-0.2-0.4-0.5-0.2-0.8c0.2-0.3,0.6-0.1,0.9-0.2
		c0.1,0.4-0.3,1.4,0.8,0.5C332.9,180.3,333.1,180.8,333.5,180.7L333.5,180.7z M341.4,189.5c-0.8,0.5-1-0.6-1.6-0.4
		c0.2-0.4,0-0.9,0.1-1.3c0.1-0.3,0.5-0.6,0.9-0.5c0.1,0,0.2,0.3,0.1,0.3C339.8,188.6,341.5,188.9,341.4,189.5L341.4,189.5z
		 M336.8,184c-0.2-0.1-0.3-0.1-0.4-0.2c0.6-0.5,0.1-1.7,1-2.1c0.3-0.1,0.4,0.2,0.5,0.3c0.1,0.1,0.6,0.4,0.2,0.4
		c-0.9,0.1-0.8,0.7-0.8,1.3C337.3,184.3,336.9,183.8,336.8,184L336.8,184z M333.5,183.5c-0.6-0.2-0.9,0.4-1.4,0.5
		c0-0.3-0.1-0.5-0.5-0.5c0.1-0.8,1-0.5,1.4-0.9C333.2,182.9,333.3,183.2,333.5,183.5z"/>
	<path fill="#2B2E33" d="M340.9,179.8c0.7,0.1,1.1-0.1,1.1,0.5c0,0.2-0.2,0.5-0.3,0.3c-0.3-1-0.9,0.6-1.1-0.1
		C340.4,180.1,340.6,179.7,340.9,179.8L340.9,179.8z M344.8,193.5h0.9c0.1,0.4-0.4,0.5-0.4,0.7c0,1.4-0.7,0.1-1,0.3
		C344.5,194.1,344.6,193.8,344.8,193.5L344.8,193.5z M333.4,181.7c0.4,0,0.5,0.2,0.6,0.4c0,0.6-0.3,0.5-0.7,0.6
		c-0.5,0-0.2-0.3-0.2-0.5C333,181.8,333.2,181.7,333.4,181.7z M330.2,179.3v-0.5c0.5-0.1,0.8-0.7,1.4-0.5
		C331.4,179.1,330.9,179.4,330.2,179.3z M333.5,178.5c0.7,0.8,0.4,1.3,0.5,1.8c0,0.1-0.1,0.3-0.2,0.3c-0.4,0.1-0.2-0.3-0.2-0.4
		C333.5,179.8,333.5,179.4,333.5,178.5L333.5,178.5z M338.7,189.1c0,0.3-0.1,0.5-0.3,0.4c-0.4-0.1-0.1-0.5-0.2-0.8
		c0-0.2,0.1-0.5,0.3-0.4C338.9,188.5,338.6,188.9,338.7,189.1L338.7,189.1z M341.7,193.4c0.1,0.1,0.2,0.2,0.2,0.2
		c0,0.4,0.2,0.9-0.2,1.2c0,0-0.2,0-0.2,0c0-0.4,0-0.8,0-1.1C341.5,193.7,341.6,193.6,341.7,193.4L341.7,193.4z M341.5,184.4
		c-0.1,0.2-0.1,0.4-0.2,0.4c-0.4,0-0.5-0.4-0.8-0.6c0.1-0.1,0.2-0.2,0.4-0.2C341.2,184,341.5,184.1,341.5,184.4z M338.2,184.4
		c-0.2,0-0.4,0.1-0.6,0.1c-0.2,0-0.4-0.2-0.3-0.4c0-0.1,0.3,0,0.4,0C337.9,184,338.1,184.1,338.2,184.4L338.2,184.4z M332.4,178.9
		c0,0.2,0.1,0.4,0.1,0.6c0,0.2-0.2,0.4-0.4,0.3c-0.1,0,0-0.3,0-0.4C332.1,179.1,332.1,179,332.4,178.9L332.4,178.9z M338.2,179.8
		v-0.9c0.4,0,0.5,0.3,0.5,0.6C338.6,179.7,338.5,179.8,338.2,179.8L338.2,179.8z M331.6,184c-0.4-0.1-0.9,0.2-0.9-0.5h0.9V184z
		 M339.9,191.6c0,0,0.1,0.1,0.1,0.1c-0.1,0.1-0.1,0.2-0.2,0.3c-0.2,0.1-0.3,0-0.2-0.2C339.7,191.7,339.8,191.7,339.9,191.6
		L339.9,191.6z M330.9,182.6c0,0.1,0.1,0.1,0.1,0.2c-0.1,0.1-0.1,0.2-0.2,0.3c-0.2,0.1-0.3,0-0.2-0.2
		C330.7,182.8,330.8,182.7,330.9,182.6z"/>
	<path fill="#2B2E33" d="M338,178.8c-0.1-0.1-0.2-0.2-0.2-0.3c0.1-0.2,0.2-0.2,0.3-0.1c0.1,0.1,0.1,0.2,0.1,0.4H338L338,178.8z
		 M338.2,176.9h0.5v0.5C338.3,177.4,338.2,177.3,338.2,176.9z M340.5,201.5c0.4,0,1,0.2,1-0.6c0-0.2,0.2-0.4,0.5-0.4
		c0.4,0.7,0.2,1.4-0.6,1.9c-1.2,0.8,0,0,0.1,0c0-0.1-0.1-0.3-0.1-0.4c-0.1-0.1-0.2-0.1-0.3,0.1c0,0.1,0.1,0.2,0.3,0.3
		c-0.1,0.7-0.6,1-1.3,0.9C340,202.7,340.1,202,340.5,201.5L340.5,201.5z M344.4,202.4c-0.4,0.1-0.5-0.2-0.8-0.4
		c-0.1-0.1-0.3-0.3-0.1-0.5c0.5-0.4,0.8-0.8,0.8-1.6c0-0.2,0.4-0.6,0.7-0.8c0.1-0.1,0.5-0.1,0.6,0.2c0.1,0.1,0,0.3,0.1,0.4
		c0.1,0.5-1.7,0-0.5,1c-0.6,0.3-0.5,0.9-0.5,1.4C344.8,202.3,344.5,202.3,344.4,202.4L344.4,202.4z M342.7,206.3
		c-0.7-1.9-0.6-2,1.1-1.8c-0.1,0.5-0.9,0.1-0.8,0.5c0,0.2,0.3,0.8,0.9,0.8c0.1,0,0.3,0.1,0.4,0.1c-0.1,0.2-0.2,0.3-0.3,0.5
		C343.4,206.9,342.8,206.5,342.7,206.3c0.8-0.6,0.7-0.6,0.5-0.6c-0.2,0-0.4,0.1-0.6,0.1c-0.1,0.1-0.1,0.2,0.1,0.3
		C342.9,206.2,343.2,206.2,342.7,206.3L342.7,206.3z M341.7,210.8c0.6-0.2,0.7-1,1.5-0.9c0,0.1,0.2,0.3,0.1,0.3
		c-0.3,0.4-0.6,0.7-1,1c-0.4,0.3-1.3,0-1.6-0.5c-0.2-0.3,0.6-0.7-0.1-1c0.2-0.2,0.3-0.5,0.5-0.6c0.2-0.1,0.5-0.1,0.6,0
		c0.4,0.2-0.1,0.3-0.1,0.5C341.4,210,341.4,210.4,341.7,210.8L341.7,210.8z M343.5,209.5c-0.1-0.7-0.3-1.3,0.2-1.9
		c0.1-0.1,0.2-0.7,0.6-0.3c0.2,0.2,0.8,0.3,0.3,0.8c-0.3,0.2-0.3,0.6,0,0.8c0.2,0.2,0.5,0.1,0.8-0.1c0.4-0.4,0.5-0.2,0.5,0.2
		c0,0.1,0.2,0.5-0.2,0.5C344.8,209.5,344.1,209.5,343.5,209.5L343.5,209.5z M345.7,196.4c0-0.2,0-0.5,0.2-0.6c0.2-0.1,0.5,0,0.6,0.1
		c0.2,0.2,0.8,0.3,0.3,0.8c-0.2,0.2-0.3,0.6-0.1,0.8c0.3,0.3,0.4-0.4,0.7-0.3c0.3,0.1,0.2,0.5,0.1,0.6c-0.1,0.1-0.4,0.2-0.6,0.2
		C346,198.1,345.7,197.7,345.7,196.4z M339.9,205.2c0.4,0,0.7,0.1,0.6,0.3c-1,1-0.2,1.4,0.5,2c0,0-0.1,0.5-0.2,0.6
		c-0.6,0.2-1-0.7-1.6-0.5v-0.2c0-0.2-0.1-0.5,0.2-0.6c0.8-0.3-0.7-0.9,0.2-1.2C339.7,205.5,339.8,205.3,339.9,205.2L339.9,205.2z
		 M345.9,204.7c-0.5,0.1-0.7-0.2-1-0.5c-0.4-0.5,0.3-0.7,0.5-0.8c0.3-0.1,0.7-0.1,1.1,0c0.1,0,0.1,0.2,0.2,0.4
		c-0.3,0.1-0.7-0.2-0.8,0.2c-0.1,0.1,0.2,0.4,0.2,0.6C346.1,204.7,346,204.7,345.9,204.7L345.9,204.7z"/>
	<path fill="#2B2E33" d="M341.5,204.3c0,0.1,0,0.2,0,0.2c-0.5,0.2-1.7-0.1-1.9-0.6c-0.1-0.3,0-0.6,0.4-0.6
		C340.2,204.1,341.1,203.8,341.5,204.3L341.5,204.3z M347.6,203.2c-0.3-0.4-0.5-0.6-0.5-0.6c0.2-0.4-0.7-0.6-0.3-1
		c0.1-0.1,0.3-0.1,0.4,0c0.5,0.3,0.2,0.8,0.3,1.2C347.6,202.7,347.6,202.8,347.6,203.2L347.6,203.2z M345.2,210.6
		c-0.2,0.4-0.4,0.7-0.9,0.8c-0.1,0-0.4-0.1-0.4-0.1c0.1-0.4,0.4-0.7,0.8-0.8C344.9,210.4,345,210.5,345.2,210.6z M346.1,212.8
		c-0.4,0-0.7,0-1.1,0c-0.5,0-0.2-0.3-0.2-0.4c0-0.3,0-0.6,0.4-0.3c0.3,0.2,0.6,0.3,0.9,0.5C346.1,212.6,346.1,212.7,346.1,212.8
		L346.1,212.8z"/>
	<path fill="#2B2E33" d="M341.5,204.3c-0.1-0.5,0.1-0.9,0.5-1.2c0.2-0.1,0.2-0.2,0.3-0.1c0.1,0.1,0.1,0.3,0.1,0.4
		C342.3,203.8,342,204.2,341.5,204.3L341.5,204.3z M348.1,200.8c-0.3-0.4-0.5-0.6-0.5-0.6c0.2-0.5-0.7-0.6-0.3-1.1
		c0.1-0.1,0.3-0.1,0.4,0c0.5,0.3,0.2,0.8,0.3,1.2C348.1,200.4,348.1,200.4,348.1,200.8L348.1,200.8z M348.1,203.8h-0.9
		c0.2-0.3,0.3-0.6,0.5-0.9C348.3,202.9,348,203.5,348.1,203.8z M345.7,201.9c-0.1,0-0.4-0.1-0.4-0.1c0-0.4,0.4-0.5,0.6-0.8
		c0.1,0.1,0.2,0.2,0.2,0.4C346.2,201.7,346.2,202,345.7,201.9L345.7,201.9z M346,211.8c-0.1-0.1-0.3-0.1-0.3-0.2
		c0-0.2-0.1-0.5,0.2-0.6c0.1,0,0.3,0.1,0.3,0.2C346.2,211.3,346.3,211.6,346,211.8z M346.1,210.1c0,0-0.1,0.2-0.1,0.2
		c-0.4-0.1-0.2-0.4-0.3-0.7c0-0.2,0-0.3,0.2-0.2C346.1,209.6,346.3,209.8,346.1,210.1L346.1,210.1z M346.2,206.2
		c0.7,0,0.4,0.6,0.5,0.9C346,207.1,346.3,206.5,346.2,206.2z M343.8,212.8h-0.5c0-0.2,0-0.4,0.3-0.4
		C343.8,212.4,343.8,212.6,343.8,212.8z M337.7,167.1c0-0.1,0-0.2,0-0.2c-0.1-0.2-0.6-0.3-0.3-0.6c0.1-0.2,0.5-0.1,0.8-0.1
		c0,0.1,0,0.1,0,0.2c0,0.2,0.6,0.3,0.3,0.6C338.4,167.1,338,167,337.7,167.1z M343.4,170.8c0,0.3,0.1,0.5,0.5,0.5v0.5h-0.9
		C343,171.4,342.7,170.9,343.4,170.8z M341,168.5c0.9,0.2,0.3,1,0.5,1.4C340.6,169.7,341.2,168.9,341,168.5z M344.1,167.6
		c0.3,0.2,0.2,0.4,0.2,0.6c0,0.1-0.2,0.2-0.3,0.2c-0.3-0.1-0.2-0.4-0.1-0.6C343.9,167.7,344.1,167.7,344.1,167.6z M338.5,165.2
		c0.1,0.2,0.2,0.4,0.1,0.6c0,0.2-0.2,0.4-0.4,0.3c-0.1,0,0-0.3,0-0.4C338.2,165.4,338.2,165.3,338.5,165.2L338.5,165.2z
		 M342.9,168.3c-0.1,0.1-0.1,0.2-0.2,0.2c-0.1-0.1-0.2-0.1-0.3-0.2c-0.1-0.2,0-0.3,0.2-0.2C342.7,168.1,342.8,168.2,342.9,168.3
		L342.9,168.3z M340.8,168.5c-0.1-0.1-0.2-0.2-0.2-0.3c0.1-0.2,0.2-0.2,0.3-0.1c0.1,0.1,0.1,0.2,0.1,0.4H340.8L340.8,168.5z
		 M337.7,164.9c-0.1,0.1-0.2,0.1-0.3,0.1c0,0-0.1-0.1-0.1-0.1c0.1-0.1,0.2-0.1,0.3-0.1C337.6,164.8,337.7,164.9,337.7,164.9z
		 M344.2,169l0.2,0.2c-0.1,0.1-0.2,0.1-0.3,0.2c0,0-0.1-0.1-0.1-0.2C344,169.1,344.1,169.1,344.2,169z M337.7,163.3h0.5
		c0,0.2,0,0.4-0.3,0.4C337.8,163.6,337.8,163.4,337.7,163.3z M345.2,169.1c-0.1,0.1-0.2,0.2-0.3,0.2c-0.2-0.1-0.2-0.2-0.1-0.3
		c0.1-0.1,0.2-0.1,0.4-0.1L345.2,169.1L345.2,169.1z M341,163.1c0,0.1-0.1,0.2-0.1,0.2c-0.1-0.1-0.2-0.1-0.3-0.2
		c-0.1-0.2,0-0.3,0.2-0.2C340.9,162.9,340.9,163,341,163.1L341,163.1z M342.2,166.1c0,0.1,0.1,0.1,0.1,0.2c-0.1,0.1-0.1,0.2-0.2,0.3
		c-0.2,0.1-0.3,0-0.2-0.2C342,166.3,342.1,166.2,342.2,166.1z M343.7,166.6l0.2,0.2c-0.1,0-0.2,0.1-0.3,0.1c0,0-0.1-0.1-0.2-0.1
		C343.5,166.8,343.6,166.7,343.7,166.6z M348.1,215.6c-0.5,0.4-0.1,1.3-0.9,1.4C346.6,216.1,346.8,215.8,348.1,215.6z M347.5,217.6
		c0.2,0.3-0.1,0.4-0.3,0.3c-0.3,0-0.8,0.2-0.9-0.3c0-0.2,0.4-0.4,0.6-0.6L347.5,217.6L347.5,217.6z M345.8,218.9
		c-0.2,0-0.4-0.1-0.5-0.3c0.2-0.1,0.4-0.2,0.6-0.2c0.1,0,0.3,0.1,0.3,0.2C346.3,219.1,345.9,218.8,345.8,218.9L345.8,218.9z
		 M346.7,214.9c-0.1,0.1-0.2,0.2-0.3,0.2c-0.2-0.1-0.2-0.2-0.1-0.3c0.1-0.1,0.2-0.1,0.4-0.1L346.7,214.9L346.7,214.9z M358.4,202.4
		v1.4c-0.5-0.2-1.2,0.4-1.4-0.5c0.4,0,1,0.2,1-0.6C358,202.5,358.1,202.3,358.4,202.4z M357.3,188.8c0,0.2,0.1,0.4,0.1,0.6
		c0,0.2-0.2,0.4-0.4,0.3c-0.1,0,0-0.3,0-0.4C357,189,357.1,188.8,357.3,188.8L357.3,188.8z M359.4,193.4v0.5h-0.5
		c-0.2,0-0.5,0-0.4-0.3c0-0.1,0.2-0.1,0.4-0.1C359.1,193.4,359.2,193.5,359.4,193.4L359.4,193.4z M358.2,192.1
		c0,0.1,0.1,0.1,0.1,0.1c-0.1,0.1-0.1,0.2-0.2,0.3c-0.2,0.1-0.3,0-0.2-0.2C358,192.2,358.1,192.1,358.2,192.1L358.2,192.1z
		 M359,198.9c0-0.1,0.1-0.2,0.2-0.3c0.1,0.1,0.2,0.1,0.2,0.1c0,0.1-0.1,0.2-0.2,0.3L359,198.9z M359.4,201.9h-0.5
		c0-0.2,0-0.4,0.3-0.4C359.3,201.6,359.3,201.8,359.4,201.9z"/>
	<path fill="#2B2E33" d="M358.9,201.9c0,0.3-0.1,0.5-0.5,0.5C358.4,202.1,358.6,201.9,358.9,201.9z M342.4,174.1h0.9
		c-0.2,0.3-0.3,0.6-0.5,0.9c-0.4-0.1-0.9,0.2-0.9-0.5C342.3,174.6,342.4,174.4,342.4,174.1z M341.5,173.6v0.5h-0.9
		C340.6,173.4,341.1,173.7,341.5,173.6z M340.5,174.6h-0.5c-0.2,0-0.5,0-0.4-0.3c0-0.1,0.2-0.1,0.4-0.2c0.1,0,0.3,0,0.5,0V174.6
		L340.5,174.6z"/>
	<path fill="#2B2E33" d="M341.5,174.6c0,0.4-0.3,0.5-0.6,0.5c-0.2,0-0.4-0.2-0.4-0.5H341.5z M341.3,176.9c-0.1-0.1-0.2-0.2-0.2-0.3
		c0.1-0.2,0.2-0.2,0.3-0.1c0.1,0.1,0.1,0.2,0.1,0.4L341.3,176.9L341.3,176.9z M341.5,174.1h0.5v0.5h-0.5V174.1z M333.5,176.5
		c0,0.4-0.3,0.5-0.6,0.5c-0.2,0-0.4-0.2-0.4-0.5C332.6,176.5,333.5,176.5,333.5,176.5z M357,204.3c0.2,0.1,0.3,0.1,0.4,0.2
		c-0.2,0.3-0.4,0.5-0.7,0.8c-0.2,0.1-0.2,0-0.2-0.2C356.5,204.6,356.5,204.3,357,204.3L357,204.3z M344.3,173.6
		c0,0.3,0.1,0.5,0.5,0.5v0.5c-0.6,0.2-0.9-0.4-1.4-0.5C343.4,173.4,344,173.7,344.3,173.6z M342,174.1v-0.5c0.3,0,0.5,0.1,0.5,0.5
		H342z M343.8,171.3v-0.5c0.2,0,0.4,0,0.4,0.3C344.2,171.2,344,171.2,343.8,171.3z M344.8,174.6h0.5v0.5h-0.5V174.6z M325,184.5
		c0.6,0,0.5,0.4,0.4,0.8c-0.2,0.5-0.9,0.6-1.3,0.8c-0.4,0.2-0.4,0.2-0.5-0.7C324.4,185.5,324.9,185.2,325,184.5z M326.9,187.8
		c0-0.3-0.1-0.5-0.5-0.5c-0.1-0.7,0.2-1.1,0.9-1.4v1.9C327.4,187.8,326.9,187.8,326.9,187.8z M330.7,186.9v-1.4h0.5
		C331,185.9,331.6,186.6,330.7,186.9z M329.3,185.9c-0.3,0.2-0.6,0.3-0.9,0.5c0.1-0.3-0.2-0.8,0.4-0.9
		C329,185.4,329.3,185.5,329.3,185.9z M331.6,184.5c-0.1,0.4,0.2,0.9-0.5,0.9C331.2,185.1,330.9,184.5,331.6,184.5z M319.8,186.2
		c-0.2,0.1-0.4,0.2-0.6,0.1c-0.2,0-0.4-0.2-0.3-0.4c0-0.1,0.3,0,0.4,0C319.6,185.9,319.8,186,319.8,186.2L319.8,186.2z M321.3,186.2
		c-0.2,0.1-0.5,0.2-0.6,0.2c-0.1,0-0.2-0.1-0.4-0.2c0.2-0.1,0.4-0.2,0.6-0.2C321,185.9,321.2,186.1,321.3,186.2z M325.8,185.9
		c0,0.2,0.1,0.4,0.1,0.6c0,0.2-0.2,0.4-0.5,0.3c0,0,0-0.3,0-0.4C325.5,186.2,325.5,186,325.8,185.9L325.8,185.9z M319.2,186.9
		c0.3,0.2,0.2,0.4,0.2,0.6c0,0.1-0.2,0.2-0.3,0.2c-0.3-0.1-0.2-0.4-0.1-0.6C318.9,187,319.1,187,319.2,186.9z M332.1,184
		c0,0.3-0.1,0.5-0.5,0.5V184H332.1z M326.4,187.3v0.5H326C326,187.5,326.1,187.3,326.4,187.3z M320.4,187.5l0.2-0.2
		c0,0.1,0.1,0.2,0.1,0.3c0,0-0.1,0.1-0.1,0.1C320.5,187.7,320.5,187.6,320.4,187.5z M325,187.3c0-0.3,0.1-0.5,0.5-0.5
		C325.5,187.2,325.4,187.3,325,187.3z M330.2,185.4c0,0.3-0.1,0.5-0.5,0.5C329.7,185.6,329.9,185.4,330.2,185.4z"/>
	<path fill="#2B2E33" d="M324.8,184.5c-0.1-0.1-0.2-0.2-0.2-0.3c0.1-0.2,0.2-0.2,0.3-0.1c0.1,0.1,0.1,0.2,0.1,0.4L324.8,184.5
		L324.8,184.5z M330.7,185.4h-0.5c0-0.2,0-0.4,0.3-0.4C330.6,185.1,330.6,185.3,330.7,185.4z M323.6,185.4c-0.2,0-0.4,0-0.4-0.3
		c0-0.1,0.2-0.1,0.4-0.2V185.4z M329.9,184.4l-0.2-0.2c0.1-0.1,0.2-0.1,0.3-0.1c0,0,0.1,0.1,0.1,0.1
		C330.1,184.3,330,184.4,329.9,184.4z M331.6,197.2v-0.5c0.4-0.1,0.9,0.2,0.9-0.5c0.3,0.2,0.6,0.3,0.9,0.5v0.9h-0.6h0.1
		c0-0.1-0.1-0.3-0.1-0.4c-0.1-0.1-0.2-0.1-0.3,0.1c0,0.1,0.1,0.2,0.3,0.3c0.1,0.3,0.1,0.6,0.1,0.9h-0.6h0.1c0-0.1-0.1-0.3-0.1-0.4
		c-0.1-0.1-0.2-0.1-0.3,0.1c0,0.1,0.1,0.2,0.3,0.3c0.1,0.3,0.1,0.6,0.1,0.9c-0.3,0-0.5,0.1-0.5,0.5c-0.4,0.2-0.6-0.9-1.1-0.1
		c0,0.1-0.6-0.3-0.9-0.3c-0.4-0.1-0.9,0-1.2,0c-0.3-1.1,0.8-1.2,0.9-1.9c0.9,0.4,0.4,0.8-0.1,1.2c1.3,0.1,1.9-0.3,2-1.2
		c0.1,0,0.4-0.1,0.4-0.2C332,197.2,331.8,197.2,331.6,197.2L331.6,197.2z M331.1,201.5c-1,0.6-2.2,0.5-3,1.4
		c-0.2-0.4-0.5-0.9-0.7-1.3c-0.1-0.3,0-0.6,0.4-0.6c0,0.5,0.4,0.6,0.6,0.9c0.4-0.6,1.2-0.2,1.7-0.6
		C330.7,200.8,330.7,200.8,331.1,201.5L331.1,201.5z M330.7,204.3v0.9c-0.3-0.2-0.6-0.3-0.9-0.5
		C329.8,203.8,329.8,203.8,330.7,204.3z M328.8,204.8v0.5c0,0.2,0,0.4-0.3,0.4c-0.1,0-0.1-0.2-0.1-0.4c0-0.1,0-0.3,0-0.5H328.8
		L328.8,204.8z M329.3,204.8h-0.5v-0.5c0-0.2,0-0.5,0.3-0.4c0.1,0,0.1,0.2,0.1,0.4C329.3,204.4,329.3,204.6,329.3,204.8L329.3,204.8
		z"/>
	<path fill="#2B2E33" d="M328.1,200.5c0,0.1,0.1,0.1,0.1,0.1c-0.1,0.1-0.1,0.2-0.2,0.3c-0.2,0.1-0.3,0-0.2-0.2
		C327.9,200.7,328,200.6,328.1,200.5L328.1,200.5z M335.4,197.7h0.5c0.2,0.2-0.5,1,0.5,0.7c0.2-0.1,0.4-0.2,0.4,0.1
		c0.1,0.4,0.2,1.1,0,1.3c-0.7,0.7-0.3,1.4-0.4,2.1h-0.5c-0.1-0.2-0.2-0.4-0.3-0.5c-0.4-0.5-0.6-0.6-0.7,0.2c0,0.2-0.2,0.4-0.5,0.3
		V200c0.7,0,0.4-0.6,0.5-0.9c0.2,0,0.3,0,0.7,0.3c0.3,0,0.2-0.2,0-0.3c-0.2-0.1-0.3,0-0.2,0.2c0,0.2-0.1,0.6,0.3,0.7
		c0,0,0.1-0.2-0.1-0.6C335.4,198.6,335.4,198.2,335.4,197.7L335.4,197.7z M334.9,186.4h0.5c0,0.3-0.1,0.5-0.5,0.5V186.4z
		 M335.4,185.9h0.5c0,0.3-0.1,0.5-0.5,0.5V185.9z M336.8,193v-0.5c0.3,0,0.5,0.1,0.5,0.5H336.8z M333,198.6h0.5v0.9H333V198.6z
		 M322.2,174.1h-0.9c0-0.5,0.4-0.6,0.6-0.9c0.2-0.2,0.3-0.6,0.6-0.4c0.3,0.2,0.1,0.6,0.1,0.8C322.4,173.6,322.2,173.8,322.2,174.1z
		 M320.8,171.3c0.1,0.1,0.2,0.1,0.4,0.2c-0.2,0.3-0.4,0.5-0.7,0.8c-0.2,0.1-0.2,0-0.2-0.2C320.3,171.6,320.3,171.3,320.8,171.3z
		 M323.6,174.6v0.5c-0.4-0.1-0.9,0.2-0.9-0.5H323.6z M324.1,174.1c0,0.3-0.1,0.5-0.5,0.5C323.6,174.3,323.8,174.1,324.1,174.1z
		 M322.7,174.6c-0.3,0-0.5-0.2-0.5-0.5h0.5V174.6z"/>
	<path fill="#2B2E33" d="M322.7,173.6c0.2,0,0.4,0,0.4,0.3c0,0.1-0.2,0.1-0.4,0.2V173.6z M325,175.1v0.5h-1.4v-0.5H325z M323.6,176
		c0.4,0.1,0.9-0.2,0.9,0.5h-0.9V176z M323.6,175.5v0.5c-0.2,0-0.4,0-0.4-0.3C323.3,175.6,323.5,175.6,323.6,175.5z M326.4,179.8H326
		c0-0.2,0-0.4,0.3-0.4C326.4,179.4,326.4,179.6,326.4,179.8z M324.6,176.9v0.5h-0.5C324.1,177.1,324.2,176.9,324.6,176.9z
		 M324.1,177.9h-0.5c0-0.3,0.1-0.5,0.5-0.5V177.9z M328.8,179.3h-0.5v-0.5C328.7,178.8,328.8,179,328.8,179.3z M324.6,177.4h0.5v0.5
		h-0.5V177.4z M326.9,206.6h-0.5v-0.5c0-0.2,0-0.5,0.3-0.4c0.1,0,0.1,0.2,0.2,0.4C326.9,206.3,326.9,206.5,326.9,206.6L326.9,206.6z
		 M325.5,205.7H325c0-0.2,0-0.4,0.3-0.4C325.4,205.4,325.5,205.6,325.5,205.7z M331.1,196.7v0.5c-0.3,0-0.5-0.1-0.5-0.5H331.1z
		 M331.1,197.2h0.5v0.5C331.3,197.7,331.1,197.5,331.1,197.2z"/>
</g>
<path fill="#FFFFFF" d="M336.3,99.3c-8.4,0-15.3-6.9-15.3-15.3s6.9-15.3,15.3-15.3s15.3,6.9,15.3,15.3S344.7,99.3,336.3,99.3z
	 M336.3,72.9c-6.1,0-11.1,5-11.1,11.1s5,11.1,11.1,11.1s11.1-5,11.1-11.1C347.4,77.9,342.4,72.9,336.3,72.9z"/>
<path fill="#2B2E33" d="M336.3,68.7c8.4,0,15.3,6.9,15.3,15.3s-6.9,15.3-15.3,15.3S321,92.4,321,84S327.8,68.7,336.3,68.7 M336.3,95.1
	c6.1,0,11.1-5,11.1-11.1c0-6.1-5-11.1-11.1-11.1s-11.1,5-11.1,11.1S330.1,95.1,336.3,95.1 M336.3,67.5c-9.1,0-16.5,7.4-16.5,16.5
	s7.4,16.5,16.5,16.5s16.5-7.4,16.5-16.5S345.4,67.5,336.3,67.5z M336.3,93.9c-5.5,0-9.9-4.5-9.9-9.9s4.5-9.9,9.9-9.9
	s9.9,4.5,9.9,9.9S341.8,93.9,336.3,93.9z"/>
<path fill="#FFFFFF" d="M301,99.3c-8.4,0-15.3-6.9-15.3-15.3s6.9-15.3,15.3-15.3s15.3,6.9,15.3,15.3S309.4,99.3,301,99.3z M301,72.9
	c-6.1,0-11.1,5-11.1,11.1s5,11.1,11.1,11.1c6.1,0,11.1-5,11.1-11.1S307.1,72.9,301,72.9z"/>
<path fill="#2B2E33" d="M301,68.7c8.4,0,15.3,6.9,15.3,15.3s-6.9,15.3-15.3,15.3s-15.3-6.9-15.3-15.3S292.5,68.7,301,68.7 M301,95.1
	c6.1,0,11.1-5,11.1-11.1c0-6.1-5-11.1-11.1-11.1s-11.1,5-11.1,11.1S294.8,95.1,301,95.1 M301,67.5c-9.1,0-16.5,7.4-16.5,16.5
	s7.4,16.5,16.5,16.5s16.5-7.4,16.5-16.5S310.1,67.5,301,67.5L301,67.5z M301,93.9c-5.5,0-9.9-4.5-9.9-9.9s4.5-9.9,9.9-9.9
	s9.9,4.5,9.9,9.9S306.4,93.9,301,93.9z"/>
<path fill="#FFFFFF" d="M371.9,99.3c-8.4,0-15.3-6.9-15.3-15.3s6.9-15.3,15.3-15.3s15.3,6.9,15.3,15.3S380.4,99.3,371.9,99.3z
	 M371.9,72.9c-6.1,0-11.1,5-11.1,11.1s5,11.1,11.1,11.1c6.1,0,11.1-5,11.1-11.1C383.1,77.9,378.1,72.9,371.9,72.9z"/>
<path fill="#2B2E33" d="M371.9,68.7c8.4,0,15.3,6.9,15.3,15.3s-6.9,15.3-15.3,15.3s-15.3-6.9-15.3-15.3S363.5,68.7,371.9,68.7
	 M371.9,95.1c6.1,0,11.1-5,11.1-11.1c0-6.1-5-11.1-11.1-11.1c-6.1,0-11.1,5-11.1,11.1S365.8,95.1,371.9,95.1 M371.9,67.5
	c-9.1,0-16.5,7.4-16.5,16.5s7.4,16.5,16.5,16.5s16.5-7.4,16.5-16.5S381,67.5,371.9,67.5z M371.9,93.9c-5.5,0-9.9-4.5-9.9-9.9
	s4.5-9.9,9.9-9.9s9.9,4.5,9.9,9.9S377.4,93.9,371.9,93.9z"/>
<path fill="#3A3E45" d="M391.6,114.6c-3.9-2.9-7.9-5.6-11.8-8.5c-0.8-0.6-1.3-0.5-2,0c-4,2.9-8.1,5.8-12.2,8.7c-0.9,0.6-1.4,0.6-2.3,0
	c-2.7-2-5.4-3.9-8.1-5.8c-1.7-1.2-3.3-2.3-5-3.5c-4.5,3.2-8.8,6.2-13.2,9.4c-0.8,0.6-1.4,0.7-2.2,0c-1.3-1.1-2.7-2-4.1-3
	c-3-2.1-6-4.3-9.1-6.4c-3.7,2.6-7.3,5.2-10.9,7.7c-1.1,0.8-2.2,2.1-3.3,2.1c-1.1,0-2.3-1.3-3.4-2.1c-3.7-2.6-7.3-5.1-10.9-7.7
	c-4.1,2.9-8.2,5.8-12.2,8.7c-1.4,1-2.9,1.7-4.3,0.3c0,0-0.2,0-0.3,0c-0.1,11.2,0.2,22.3,0,33.8c0.5-0.3,0.8-0.4,1-0.6
	c1.1-1.2,2.1-0.9,3.3,0c3.8,2.8,7.8,5.5,11.6,8.3c0.8,0.6,1.3,0.5,2,0c4-2.9,8.1-5.8,12.2-8.7c0.8-0.6,1.3-0.6,2.1,0
	c3.9,2.8,7.9,5.6,11.8,8.4c1,0.7,1.7,0.8,2.7,0c3.9-2.9,7.9-5.6,11.8-8.4c0.9-0.6,1.4-0.6,2.3,0c3.9,2.8,7.8,5.5,11.6,8.3
	c1.2,0.9,1.9,0.8,3-0.1c3.8-2.8,7.8-5.5,11.6-8.3c0.8-0.6,1.4-0.6,2.3,0c4,2.9,8.1,5.8,12.1,8.7c0.8,0.6,1.3,0.5,2,0
	c3.6-2.6,7.2-5,10.7-7.7c1.7-1.3,3.4-1.9,5.1-0.1c0,0,0.2,0,0.4,0c0-11.4,0.3-23.5,0.3-35.1c-0.5,0.3-1.5,1.1-1.8,1.4
	C393.6,115.5,392.7,115.4,391.6,114.6z"/>

  <path class="polar" d="M378.8,106.9c0,0,0.1,0.1,0.3,0.2c1.7,1.2,3.5,2.5,5.2,3.7c2.2,1.5,4.5,3.1,6.6,4.8c0.5,0.4,1.3,0.9,2.2,0.9
	c0.7,0,1.4-0.3,2-0.8c0,5-0.1,10.2-0.2,15.2c-0.1,5.1-0.1,10.4-0.2,15.5c-0.5-0.2-1-0.3-1.5-0.3c-1.5,0-2.8,0.9-3.6,1.5
	c-2.1,1.6-4.3,3.2-6.5,4.7c-1.4,1-2.8,1.9-4.2,3c-0.2,0.1-0.3,0.2-0.3,0.2c0,0-0.1-0.1-0.3-0.2c-2.1-1.5-4.2-3-6.2-4.4
	c-2-1.4-4-2.8-5.9-4.2c-0.4-0.3-1-0.7-1.8-0.7c-0.8,0-1.4,0.4-1.8,0.7c-1.7,1.2-3.5,2.5-5.2,3.7c-2.1,1.5-4.3,3-6.4,4.6
	c-0.4,0.3-0.7,0.4-0.9,0.4c-0.2,0-0.4-0.1-0.8-0.4c-2.3-1.7-4.7-3.4-7-5c-1.5-1.1-3.1-2.2-4.6-3.3c-0.4-0.3-1-0.7-1.8-0.7
	c-0.8,0-1.4,0.4-1.8,0.7c-1.8,1.3-3.5,2.5-5.3,3.8c-2.2,1.5-4.4,3.1-6.5,4.7c-0.4,0.3-0.6,0.3-0.6,0.3c-0.1,0-0.3-0.1-0.7-0.4
	c-2.1-1.5-4.2-3-6.2-4.5c-1.8-1.3-3.7-2.6-5.6-4c-0.6-0.4-1.2-0.7-1.8-0.7c-0.8,0-1.4,0.4-1.8,0.7c-2,1.4-4,2.8-6,4.2
	c-2,1.4-4.1,2.9-6.2,4.4c-0.2,0.2-0.3,0.2-0.3,0.2c0,0-0.1-0.1-0.3-0.2c-1.6-1.2-3.3-2.4-5-3.5c-2.2-1.5-4.5-3.1-6.6-4.7
	c-0.7-0.5-1.5-1-2.5-1c-0.4,0-0.8,0.1-1.2,0.3c0-5,0-10,0-14.9c0-4.9-0.1-9.9,0-14.8c0.3,0.1,0.6,0.1,0.8,0.1c1,0,2.1-0.4,3.3-1.3
	c2.9-2.1,5.7-4.1,8.7-6.2c0.9-0.7,1.9-1.3,2.8-2c0.8,0.6,1.6,1.1,2.3,1.7c2.6,1.8,5.3,3.7,7.9,5.6c0.3,0.2,0.5,0.4,0.8,0.7
	c0.9,0.8,2,1.6,3.2,1.6h0c1.2,0,2.2-0.8,3.1-1.6c0.3-0.2,0.6-0.5,0.8-0.7c2.6-1.8,5.3-3.7,7.9-5.6l2.4-1.7l1.9,1.4
	c2.2,1.5,4.3,3,6.4,4.6c0.4,0.3,0.8,0.5,1.1,0.8c1,0.7,2,1.4,2.9,2.1c0.6,0.5,1.2,0.7,1.8,0.7c0.8,0,1.4-0.4,1.8-0.7
	c3.2-2.3,6.4-4.6,9.8-6.9c0.9-0.6,1.8-1.3,2.7-1.9l0.9,0.6c1.1,0.8,2.3,1.6,3.4,2.4c0.7,0.5,1.4,1,2.1,1.5c2,1.4,4,2.8,6,4.3
	c0.4,0.3,1.1,0.7,1.9,0.7s1.4-0.4,1.8-0.7c2.1-1.5,4.2-3,6.3-4.5c1.9-1.4,3.9-2.8,5.9-4.2C378.7,107,378.8,107,378.8,106.9
	 M350.2,105.5c-4.5,3.2-8.8,6.2-13.2,9.4c-0.4,0.3-0.8,0.5-1.1,0.5c-0.3,0-0.6-0.1-1-0.4c-1.3-1.1-2.7-2-4.1-3c-3-2.1-6-4.3-9.1-6.4
	c-3.7,2.6-7.3,5.2-10.9,7.7c-1.1,0.8-2.2,2.1-3.3,2.1h0c-1.1,0-2.3-1.3-3.4-2.1c-3.7-2.6-7.3-5.1-10.9-7.7
	c-4.1,2.9-8.2,5.8-12.2,8.7c-0.8,0.6-1.7,1.1-2.6,1.1c-0.6,0-1.2-0.2-1.7-0.8c0,0,0,0,0,0c0,0-0.1,0-0.2,0
	c-0.1,11.2,0.2,22.3,0,33.8c0.5-0.3,0.8-0.4,1-0.6c0.5-0.5,1-0.8,1.5-0.8c0.6,0,1.1,0.3,1.8,0.8c3.8,2.8,7.8,5.5,11.6,8.3
	c0.4,0.3,0.7,0.4,1,0.4s0.6-0.1,1-0.4c4-2.9,8.1-5.8,12.2-8.7c0.4-0.3,0.8-0.4,1.1-0.4s0.7,0.1,1.1,0.4c3.9,2.8,7.9,5.6,11.8,8.4
	c0.5,0.4,0.9,0.6,1.4,0.6c0.4,0,0.8-0.2,1.3-0.6c3.9-2.9,7.9-5.6,11.8-8.4c0.4-0.3,0.8-0.5,1.1-0.5s0.7,0.2,1.1,0.5
	c3.9,2.8,7.8,5.5,11.6,8.3c0.6,0.4,1,0.6,1.5,0.6c0.5,0,1-0.2,1.6-0.7c3.8-2.8,7.8-5.5,11.6-8.3c0.4-0.3,0.8-0.5,1.1-0.5
	c0.4,0,0.7,0.1,1.1,0.4c4,2.9,8.1,5.8,12.1,8.7c0.4,0.3,0.7,0.4,1,0.4s0.6-0.1,1-0.4c3.6-2.6,7.2-5,10.7-7.7c1-0.7,1.9-1.2,2.9-1.2
	c0.8,0,1.5,0.3,2.3,1.1c0,0,0,0,0,0c0.1,0,0.2,0,0.4-0.1c0-11.4,0.3-23.5,0.3-35.1c-0.5,0.3-1.5,1.1-1.8,1.4
	c-0.5,0.5-0.9,0.7-1.4,0.7s-1-0.2-1.5-0.7c-3.9-2.9-7.9-5.6-11.8-8.5c-0.4-0.3-0.7-0.4-1-0.4c-0.3,0-0.6,0.1-1,0.4
	c-4,2.9-8.1,5.8-12.2,8.7c-0.4,0.3-0.8,0.4-1.1,0.4c-0.4,0-0.7-0.2-1.1-0.5c-2.7-2-5.4-3.9-8.1-5.8
	C353.5,107.9,351.9,106.7,350.2,105.5L350.2,105.5z"/>
<path class="polar" d="M422.6,110.6v14h-8.5V82.9h16.2c9.8,0,14.7,4.6,14.7,13.7c0,5.4-2,9.4-6.1,12
	l5.9,15.9h-9.3l-4.8-14L422.6,110.6L422.6,110.6z M435,101.5c1-1.2,1.5-2.8,1.5-4.8s-0.5-3.6-1.6-4.8c-1-1.2-2.5-1.8-4.5-1.8h-7.7
	v13.2h7.9C432.5,103.4,434,102.8,435,101.5L435,101.5z M451.6,97.4c2.2-2.8,5.8-4.2,10.9-4.2s8.7,1.4,10.9,4.2
	c2.2,2.8,3.2,6.7,3.2,11.8c0,10.8-4.7,16.1-14.1,16.1c-9.4,0-14.1-5.4-14.1-16.1C448.3,104.1,449.4,100.2,451.6,97.4z M457.9,116.1
	c0.8,1.5,2.3,2.2,4.5,2.2c2.2,0,3.7-0.7,4.5-2.2s1.3-3.8,1.3-6.9s-0.4-5.4-1.3-6.9c-0.8-1.4-2.3-2.1-4.5-2.1c-2.2,0-3.7,0.7-4.5,2.1
	c-0.8,1.4-1.3,3.7-1.3,6.9S457.1,114.7,457.9,116.1z M496.1,93.2c4.3,0,7.4,1.2,9.4,3.5s3,6.6,3,12.6s-1.1,10.2-3.4,12.5
	s-6.2,3.5-11.8,3.5c-1.8,0-5-0.2-9.6-0.6l-2.3-0.2V81.7h8.2v13.2C492.1,93.8,494.3,93.2,496.1,93.2L496.1,93.2z M493.3,118
	c2.7,0,4.6-0.7,5.5-2s1.4-3.7,1.4-7.1c0-5.5-1.7-8.3-5.1-8.3c-1.6,0-3.2,0.2-4.7,0.6l-0.9,0.2v16.4C491.4,117.9,492.7,118,493.3,118
	L493.3,118z M522,116.8c1,0.8,2.3,1.3,4.1,1.3c3.8,0,7.2-0.1,10.2-0.4l1.7-0.2l0.1,6.1c-4.7,1.1-9,1.7-12.8,1.7
	c-4.6,0-8-1.2-10.1-3.7c-2.1-2.5-3.1-6.4-3.1-12c0-11,4.5-16.5,13.6-16.5c9,0,13.4,4.6,13.4,13.9l-0.6,5.7h-18
	C520.6,114.6,521.1,116,522,116.8L522,116.8z M531.1,106.5c0-2.4-0.4-4.2-1.2-5.1c-0.8-1-2.1-1.4-4.1-1.4s-3.3,0.5-4.1,1.5
	s-1.2,2.7-1.3,5.1H531.1L531.1,106.5z M544,124.6V93.9h8.2v3.2c3.4-2,6.7-3.4,9.8-4v8.3c-3.3,0.7-6.2,1.4-8.5,2.2l-1.2,0.4v20.5H544
	z M583.9,100.9h-7.5v12.6c0,1.2,0,2.1,0.1,2.6c0.1,0.5,0.3,0.9,0.7,1.3c0.4,0.4,1,0.5,1.8,0.5l4.7-0.1l0.4,6.6
	c-2.7,0.6-4.8,0.9-6.2,0.9c-3.7,0-6.2-0.8-7.5-2.5c-1.3-1.7-2-4.7-2-9.2v-12.8h-3.6v-7h3.6v-8.5h8.2v8.5h7.5L583.9,100.9
	L583.9,100.9z M438.2,179.9v-17.3h-15.5v17.3h-8.5v-41.7h8.5v17h15.5v-17.1h8.5v41.7H438.2z M477.2,158.8v12.8
	c0.1,1,0.2,1.7,0.5,2.1c0.2,0.4,0.8,0.7,1.5,0.8l-0.2,6.2c-2.1,0-3.8-0.1-5-0.4c-1.2-0.3-2.5-0.9-3.8-1.7c-2.9,1.4-5.9,2.1-9,2.1
	c-6.3,0-9.5-3.4-9.5-10.1c0-3.3,0.9-5.6,2.6-7c1.8-1.4,4.5-2.2,8.1-2.4l6.6-0.5v-1.9c0-1.3-0.3-2.1-0.9-2.6s-1.5-0.7-2.8-0.7
	l-11.5,0.5l-0.2-5.7c4.4-1.2,8.5-1.8,12.5-1.8c4,0,6.8,0.8,8.5,2.4C476.4,152.6,477.2,155.2,477.2,158.8L477.2,158.8z M463.5,166.9
	c-2.3,0.2-3.4,1.4-3.4,3.7s1,3.4,3,3.4c1.6,0,3.2-0.2,5.1-0.7l0.9-0.2v-6.6L463.5,166.9L463.5,166.9z M492.1,179.9h-8.2v-30.7h8.2
	v1.7c2.8-1.6,5.2-2.4,7.2-2.4c3.3,0,5.9,1,7.7,2.9c3.8-1.9,7.2-2.9,10.3-2.9c4.1,0,6.9,1.2,8.4,3.5c1.6,2.3,2.4,6.1,2.4,11.2v16.6
	h-8.2v-16.4c0-2.6-0.3-4.6-0.9-5.8s-1.7-1.9-3.4-1.9c-1.3,0-2.9,0.3-4.8,0.9l-0.9,0.3c0.2,3.1,0.2,5.4,0.2,7v15.9h-8.2v-15.8
	c0-3-0.3-5.2-0.8-6.4s-1.7-1.9-3.5-1.9c-1.6,0-3.2,0.3-4.7,0.9l-0.7,0.2L492.1,179.9L492.1,179.9z M542.5,172.1
	c1,0.8,2.3,1.3,4.1,1.3c3.8,0,7.2-0.1,10.2-0.4l1.7-0.2l0.1,6.1c-4.7,1.1-9,1.7-12.8,1.7c-4.6,0-8-1.2-10.1-3.7
	c-2.1-2.4-3.1-6.4-3.1-12c0-11,4.5-16.5,13.5-16.5c9,0,13.4,4.6,13.4,13.9l-0.6,5.7h-18C541,169.9,541.5,171.3,542.5,172.1
	L542.5,172.1z M551.5,161.8c0-2.5-0.4-4.2-1.2-5.1c-0.8-1-2.1-1.4-4.1-1.4c-1.9,0-3.3,0.5-4.1,1.5s-1.2,2.7-1.3,5.1L551.5,161.8
	L551.5,161.8z M573,172.1c1,0.8,2.3,1.3,4.1,1.3c3.8,0,7.2-0.1,10.2-0.4l1.7-0.2l0.1,6.1c-4.7,1.1-9,1.7-12.8,1.7
	c-4.6,0-8-1.2-10.1-3.7c-2.1-2.4-3.1-6.4-3.1-12c0-11,4.5-16.5,13.5-16.5c9,0,13.4,4.6,13.4,13.9l-0.6,5.7h-18
	C571.5,169.9,572,171.3,573,172.1L573,172.1z M582,161.8c0-2.5-0.4-4.2-1.2-5.1c-0.8-1-2.1-1.4-4.1-1.4c-1.9,0-3.3,0.5-4.1,1.5
	s-1.2,2.7-1.3,5.1L582,161.8L582,161.8z M612.1,156.2h-7.5v12.6c0,1.2,0,2.1,0.1,2.6s0.3,0.9,0.7,1.3c0.4,0.4,1,0.5,1.8,0.5l4.7-0.1
	l0.4,6.6c-2.7,0.6-4.8,0.9-6.2,0.9c-3.7,0-6.2-0.8-7.5-2.5c-1.4-1.7-2-4.7-2-9.2v-12.8h-3.6v-7h3.6v-8.5h8.2v8.5h7.5L612.1,156.2
	L612.1,156.2z M624.9,179.9h-8.2v-30.7h8.2v1.7c2.8-1.6,5.2-2.4,7.2-2.4c3.3,0,5.9,1,7.7,2.9c3.8-1.9,7.2-2.9,10.3-2.9
	c4,0,6.9,1.2,8.4,3.5c1.6,2.3,2.4,6.1,2.4,11.2v16.6h-8.2v-16.4c0-2.6-0.3-4.6-0.9-5.8c-0.6-1.2-1.7-1.9-3.4-1.9
	c-1.3,0-2.9,0.3-4.8,0.9l-0.9,0.3c0.2,3.1,0.2,5.4,0.2,7v15.9h-8.2v-15.8c0-3-0.3-5.2-0.8-6.4c-0.5-1.2-1.7-1.9-3.5-1.9
	c-1.6,0-3.2,0.3-4.7,0.9l-0.7,0.2L624.9,179.9L624.9,179.9z M690.5,158.8v12.8c0.1,1,0.2,1.7,0.5,2.1c0.2,0.4,0.8,0.7,1.5,0.8
	l-0.2,6.2c-2.1,0-3.8-0.1-5-0.4c-1.2-0.3-2.5-0.9-3.8-1.7c-2.9,1.4-6,2.1-9,2.1c-6.3,0-9.5-3.4-9.5-10.1c0-3.3,0.9-5.6,2.6-7
	c1.8-1.4,4.5-2.2,8.1-2.4l6.6-0.5v-1.9c0-1.3-0.3-2.1-0.9-2.6c-0.6-0.5-1.5-0.7-2.8-0.7l-11.5,0.5l-0.2-5.7
	c4.4-1.2,8.5-1.8,12.5-1.8s6.8,0.8,8.5,2.4C689.6,152.6,690.5,155.2,690.5,158.8L690.5,158.8z M676.7,166.9
	c-2.3,0.2-3.4,1.4-3.4,3.7s1,3.4,3,3.4c1.5,0,3.2-0.2,5.1-0.7l0.9-0.2v-6.6L676.7,166.9L676.7,166.9z M705.3,179.9h-8.2v-30.7h8.2
	v1.7c2.8-1.6,5.3-2.4,7.7-2.4c4.1,0,6.9,1.2,8.5,3.6s2.3,6.1,2.3,11.2v16.6h-8.2v-16.4c0-2.6-0.3-4.6-0.9-5.8s-1.8-1.9-3.7-1.9
	c-1.7,0-3.3,0.3-4.8,0.9l-0.7,0.2V179.9L705.3,179.9z M447.8,222.1c-2.4-5.4-3.6-10.3-3.6-14.7c0-2.2,0.3-4.6,0.9-7.2
	c0.6-2.6,1.2-4.6,1.8-6.1l0.9-2.2h2.5c-0.8,2.1-1.5,4.7-2.2,7.8c-0.7,3.1-1,5.6-1,7.6c0,2,0.3,4.2,0.8,6.6c0.6,2.4,1.1,4.4,1.6,5.9
	l0.8,2.2L447.8,222.1L447.8,222.1z M456.3,217.8h-2.6v-24.7h2.6v8.5c1.8-0.9,3.6-1.3,5.3-1.3c2.3,0,3.8,0.6,4.6,1.9
	c0.8,1.2,1.2,3.4,1.2,6.6v9.1h-2.6v-9c0-2.4-0.2-4-0.7-4.9s-1.5-1.3-3-1.3s-2.9,0.3-4.2,0.8l-0.7,0.2V217.8L456.3,217.8z
	 M484.2,205.8v8.8c0.1,0.9,0.7,1.4,2,1.5l-0.1,2c-1.8,0-3.2-0.5-4.1-1.4c-2.1,0.9-4.1,1.4-6.2,1.4c-1.6,0-2.8-0.5-3.6-1.3
	c-0.8-0.9-1.2-2.2-1.2-3.9c0-1.7,0.4-2.9,1.3-3.7c0.9-0.8,2.2-1.3,4-1.5l5.4-0.5v-1.5c0-1.2-0.2-2-0.8-2.5c-0.5-0.5-1.2-0.8-2.1-0.8
	c-1.8,0-3.7,0.1-5.7,0.4L472,203l-0.1-2c2.5-0.5,4.8-0.8,6.7-0.8c2,0,3.4,0.5,4.2,1.3C483.7,202.5,484.2,203.9,484.2,205.8
	L484.2,205.8z M473.6,212.8c0,2.1,0.9,3.2,2.6,3.2c1.6,0,3.1-0.3,4.6-0.8l0.8-0.3v-5.7l-5.1,0.5c-1,0.1-1.8,0.4-2.2,0.9
	C473.8,211.1,473.6,211.8,473.6,212.8L473.6,212.8z M495.4,212.7v-6.9h7.1v6.9H495.4z M517.8,217.8h-4.6v-17.2h4.6v1
	c1.6-0.9,2.9-1.4,4.1-1.4c1.9,0,3.3,0.5,4.3,1.6c2.1-1.1,4-1.6,5.8-1.6c2.3,0,3.8,0.7,4.7,2c0.9,1.3,1.3,3.4,1.3,6.3v9.3h-4.6v-9.2
	c0-1.5-0.2-2.5-0.5-3.3c-0.3-0.7-1-1.1-1.9-1.1c-0.7,0-1.6,0.2-2.7,0.5l-0.5,0.2c0.1,1.7,0.1,3,0.1,3.9v8.9h-4.6v-8.9
	c0-1.7-0.2-2.9-0.5-3.6s-1-1.1-2-1.1c-0.9,0-1.8,0.2-2.6,0.5l-0.4,0.1L517.8,217.8L517.8,217.8z M546.6,213.4
	c0.5,0.5,1.3,0.7,2.3,0.7c2.1,0,4-0.1,5.7-0.2l1-0.1l0.1,3.4c-2.6,0.6-5,1-7.2,1c-2.6,0-4.5-0.7-5.6-2.1s-1.8-3.6-1.8-6.7
	c0-6.2,2.5-9.3,7.6-9.3c5.1,0,7.5,2.6,7.5,7.8l-0.3,3.2h-10.1C545.8,212.2,546.1,213,546.6,213.4L546.6,213.4z M551.7,207.6
	c0-1.4-0.2-2.3-0.6-2.9c-0.4-0.5-1.2-0.8-2.3-0.8c-1.1,0-1.9,0.3-2.3,0.8s-0.7,1.5-0.7,2.8L551.7,207.6L551.7,207.6z M564.3,213.4
	c0.5,0.5,1.3,0.7,2.3,0.7c2.1,0,4-0.1,5.7-0.2l1-0.1l0.1,3.4c-2.6,0.6-5,1-7.2,1c-2.6,0-4.5-0.7-5.6-2.1s-1.8-3.6-1.8-6.7
	c0-6.2,2.5-9.3,7.6-9.3c5.1,0,7.5,2.6,7.5,7.8l-0.3,3.2h-10.1C563.4,212.2,563.7,213,564.3,213.4L564.3,213.4z M569.3,207.6
	c0-1.4-0.2-2.3-0.6-2.9c-0.4-0.5-1.2-0.8-2.3-0.8c-1.1,0-1.9,0.3-2.3,0.8s-0.7,1.5-0.7,2.8L569.3,207.6L569.3,207.6z M586.7,204.5
	h-4.2v7.1c0,0.7,0,1.2,0,1.5c0,0.3,0.2,0.5,0.4,0.7c0.2,0.2,0.6,0.3,1,0.3l2.6-0.1l0.2,3.7c-1.5,0.3-2.7,0.5-3.5,0.5
	c-2.1,0-3.5-0.5-4.2-1.4c-0.8-0.9-1.1-2.6-1.1-5.1v-7.2h-2v-3.9h2v-4.8h4.6v4.8h4.2L586.7,204.5L586.7,204.5z M596.2,212.7v-6.9h7.1
	v6.9H596.2z M616.9,217.8h-2.6v-17.2h2.5v1.2c1.7-1,3.4-1.5,5-1.5c2.1,0,3.6,0.6,4.5,1.8c0.8-0.5,1.7-0.9,2.9-1.2
	c1.2-0.4,2.3-0.5,3.2-0.5c2.3,0,3.8,0.6,4.6,1.8c0.8,1.2,1.2,3.4,1.2,6.6v9.1h-2.6v-9c0-2.4-0.2-4-0.7-4.9c-0.5-0.9-1.4-1.3-2.9-1.3
	c-0.8,0-1.5,0.1-2.3,0.3s-1.4,0.4-1.9,0.6l-0.7,0.3c0.3,0.8,0.5,2.4,0.5,5v9h-2.6v-8.9c0-2.5-0.2-4.2-0.7-5.1
	c-0.5-0.9-1.4-1.3-2.9-1.3c-0.7,0-1.5,0.1-2.3,0.3c-0.8,0.2-1.4,0.4-1.8,0.6l-0.6,0.3L616.9,217.8L616.9,217.8z M655.1,205.8v8.8
	c0.1,0.9,0.7,1.4,2,1.5l-0.1,2c-1.8,0-3.2-0.5-4.1-1.4c-2.1,0.9-4.1,1.4-6.2,1.4c-1.6,0-2.8-0.5-3.6-1.3c-0.8-0.9-1.2-2.2-1.2-3.9
	c0-1.7,0.4-2.9,1.3-3.7c0.8-0.8,2.2-1.3,4-1.5l5.4-0.5v-1.5c0-1.2-0.2-2-0.8-2.5s-1.2-0.8-2.1-0.8c-1.8,0-3.7,0.1-5.7,0.4l-1.1,0.1
	l-0.1-2c2.5-0.5,4.8-0.8,6.7-0.8s3.4,0.5,4.2,1.3C654.7,202.5,655.1,203.9,655.1,205.8L655.1,205.8z M644.5,212.8
	c0,2.1,0.9,3.2,2.6,3.2c1.6,0,3.1-0.3,4.6-0.8l0.8-0.3v-5.7l-5.1,0.5c-1,0.1-1.8,0.4-2.2,0.9C644.7,211.1,644.5,211.8,644.5,212.8
	L644.5,212.8z M662.9,217.8h-2.6v-17.2h2.5v1.2c1.9-1,3.6-1.5,5.3-1.5c2.3,0,3.8,0.6,4.6,1.9c0.8,1.2,1.2,3.5,1.2,6.6v9.1h-2.5v-9
	c0-2.4-0.2-4-0.7-4.9c-0.5-0.9-1.5-1.3-3-1.3c-0.7,0-1.5,0.1-2.3,0.3c-0.8,0.2-1.4,0.4-1.9,0.6l-0.7,0.3L662.9,217.8L662.9,217.8z
	 M682.5,202.9c0.2,1.6,0.4,3.3,0.4,5.1s-0.3,3.9-0.9,6.4c-0.6,2.4-1.2,4.3-1.8,5.7l-0.9,2h-2.5c0.8-1.8,1.5-4.2,2.2-7.2s1-5.5,1-7.4
	c0-2-0.3-4.2-0.8-6.8c-0.5-2.6-1.1-4.6-1.6-6.2l-0.8-2.4h2.5C680.8,195.4,681.8,199.1,682.5,202.9L682.5,202.9z"/>
</svg>
